<mxfile host="65bd71144e">
    <diagram id="r1hTJJX4ktYmlLHdIA5a" name="ページ1">
        <mxGraphModel dx="961" dy="832" grid="1" gridSize="10" guides="1" tooltips="1" connect="1" arrows="1" fold="1" page="1" pageScale="1" pageWidth="827" pageHeight="1169" background="#ffffff" math="0" shadow="0">
            <root>
                <mxCell id="0"/>
                <mxCell id="1" parent="0"/>
                <mxCell id="154" value="" style="rounded=0;whiteSpace=wrap;html=1;strokeColor=#000000;fillColor=none;" parent="1" vertex="1">
                    <mxGeometry width="880" height="680" as="geometry"/>
                </mxCell>
                <mxCell id="133" value="" style="shape=ext;double=1;rounded=0;whiteSpace=wrap;html=1;fillStyle=auto;strokeColor=none;fillColor=#CCE5FF;gradientColor=none;" parent="1" vertex="1">
                    <mxGeometry x="240" y="80" width="630" height="590" as="geometry"/>
                </mxCell>
                <mxCell id="153" value="" style="shape=ext;double=1;rounded=0;whiteSpace=wrap;html=1;fillStyle=auto;strokeColor=none;fillColor=#FFE6CC;gradientColor=none;" parent="1" vertex="1">
                    <mxGeometry x="399.52" y="90" width="460.48" height="570" as="geometry"/>
                </mxCell>
                <object label="Containers" id="140">
                    <mxCell style="rounded=0;whiteSpace=wrap;html=1;fillStyle=auto;strokeColor=none;fillColor=#B3B3B3;gradientColor=none;labelBackgroundColor=none;fontColor=#000000;align=center;verticalAlign=top;labelPosition=center;verticalLabelPosition=middle;fontStyle=0;fontFamily=Helvetica;labelBorderColor=none;fontSize=24;movable=1;resizable=1;rotatable=1;deletable=1;editable=1;connectable=1;" parent="1" vertex="1">
                        <mxGeometry x="539.52" y="240" width="200" height="220" as="geometry"/>
                    </mxCell>
                </object>
                <mxCell id="3" value="" style="shape=image;verticalLabelPosition=bottom;labelBackgroundColor=default;verticalAlign=top;aspect=fixed;imageAspect=0;image=data:image/png,iVBORw0KGgoAAAANSUhEUgAAAUMAAABHCAYAAACd1SWlAAAAAXNSR0IArs4c6QAAAARnQU1BAACxjwv8YQUAAAAJcEhZcwAAFxEAABcRAcom8z8AACySSURBVHhe7Z15nJ1VeceTgMgiiBWt4F61qNUWrdpq1WpbrVUsgkqpVbRWWyugBAiyRoEAYd93CGsIhCUksoawhWQm2ySZZDKTZGYyM8ksmUwyWQkSkNPf93nfc/Py5r33vvdmJoTm/PH73Jl737M/53ee5znPOe+QdevWuYCAgIBdHYEMAwICAoRAhgEBAQFCIMOAgIAAIZBhQEBAgBDIMCAgIEAIZBgQEBAgBDIMCAgIEHYpMly/fp3bIGwEG9a7TTGyng0ICNi18P+ODAuEFxPdC8LmjfoUIEGe6V+7zvX1r3W9q9e6VWvWurWpPAICAnY9vCHJEMKD2JJk9+Km6JPvIbfVIruVIruuVf1u+co1bn57n/t9fbe79vkOd+rDLe4/xja5v7tmgTvitkWuQ79DllllBQQE7BrYacnQm7MQnie7l4Q/CHyHdodWB9m1i8xaula7OW29buL8LnfVc+1uxKRmd9RdEF69e995c9x+I2e5fc6Y5d58+ky3+6kz3ZDfzHBDTqhxe50+yy3pXG35ZtUjICBg18DrSoYQ3np9oslBcBDSlhc2GDzh9ayOyG6pyK6ho8/VtKxy983tcpc83e6GP9Tsvn9Hk/vbq+rdQefOcXuK6PY4LSK7YaeI7CC8k2vdkJNijEjgZP12Yq3SBDIMCAjYAWTo/XeYoabdiehe3hwBE9c/09XX7xpWrHZ1y1a55xavdONmr3AXTmlzv5qw1B0uU/YzV8x3f3rOHLfbqTPcUEjOiC5GkuSSZOfhn09DBLm3tMVAhgEBAQNChvjwvDnrtbtXRHavvrjBvajv1vSvdStkzqLd4burbel1TzT0uNtmLHd1bX3u1Zc2uoufbnOHXDrfveOs2cUJzgNtLw/ZlUMgw4CAgBi5yTBJePju0Oz+KLJzf9ho/69Zu9Yt7+13TdLuZreucs9Ku3t4Qbe7pWaFO+vxVvfz8Uvct25ucIdcNt8dAOGNEBn9erq77Jl259xm911pf0OOnRaTnX5LI4vMtheBDAMCAmKUJcO1a9eZpgf5rdHf+O8WdPS56Ut73ePS7sbXdblrpna40x9pcT+9Z7H755sa3Cel4f3J70R4+OlOqDHfnCHpt4Pgjp3uzp28zMjwyDsa3ZBfTc8mrcFCIMOAgIAYZckQXx8+vEufbHMnT2pxP7q7yf3jDQ3u4xfP20p4x4vwhgue+DzpldPojpvuznsykGFAQMDrj7Jk6F7e6I4et9gN+fnUiPQqJbxSCGQYMIBg4Xax6waEMQ2oBOXJcMtG99/3LTHiyiSU7UEgw9cdEAgukJdeWG+7+lnPvBFAiFbD8j43dtYKd/P05e62GStcbXOvhW3xW1aagMEF+ww+VI6/s54pBcaNfQqiUJiffPL/YI1nIMPtJEMmGzvmXhsBfxS5QCzVHPPDR0tdkvkhBFnPlgNCw+ZWIa+Xos0ufqMcwpyW9axxjyzodtOW9qrOkbBVU+/XE7Rz44Z17nYR4LvOmeN2l7XyljNnudMfabVYVX8MM2DHgY1WZOmpph43ZVGPHZDIS2KMVxSNstHijNmjmLNslatv77NDFmzc8vtAj2sgw+0kQwadnfNLn25zF0xpcxc+1ebunLnCdff1VzVYrKLkN2ryMneR8mKDCQ3HB6hnpckCxAYRTGlcaXlcrLzOeWKZER95Ue/ZErAfjF3sPnx+nfv0ZfPdpc+02xHGTSKWrDx3VtjxTE28W6avMBIccnwkRyMmtQQy3MFARl+WDNPvxAl/YnSd++cbG9yy7jU2RllpkkD+OUp739xOd8JDzRZl8vfXLXCfv3qB+7I+D791kRs+Yan9ThkDadEFMtxOMmTwMMkOGjXHDRtR64adMtP+ntfWZ5pXVppigKQ2isT+h/4eXuN249jgiTXueA1+j8j1hQpICm21VQL473c1WTt350TOibXuzEdb3StaWdFeCWgvbH7pc/+Rs414K6336w1PhmNqVrj9fzvb/NqcQvrN7wMZ7kiwwEKEzzatdD8c2+Teork15Jhp7qMXzbMY43JkiLZHlMrRdze592gOmVzCCciox6+j//n9p/cucbNbe20OZuVXKQIZbicZQlCNy1e7v5JmZfVXnuDu2Z1mJmzISFMML23aYIPL8UIbdDaoJBCfu2qBm9u2ym3R71npsoBgPb9kpfvgBXXRppfwJyKKsbM63asymfET/uuYOLaTvmAjTEJGuNRACdeOQiDD1w9ogvidkbfFmkenPdziPibyG3JCvMkq+WVuNJchQ9JPrO9yn75C8wgSRGbj9EaC5MffUg5sXsQyjbY4dYkW8AHQEAMZbicZIgyQx1F3SgPzAyViOeYBtDlMzvz54te7Qya2TWgEgTqOmOH2Om2me2Rht53oyUq3DTT50fzuFvHtRn3IR4L05WsXuPntq6ytkCHB8HvEv4FPXT7f1Xf0DajpsSMQyHDHw7takCN8eiMfa3Wfu7JeFoisGeTJR5no73JkyPwhfO8QyZ8RX0x2H7lgrjtpUrP5gu+d02k3TmHpcNmKHdqIlYWv39QgzXNNRXMtC4EMt5MMwcsvrHcXP93u9h0pswAS0yBBLM0aoLybH0xoBIvrxUwgkvXUgHNccYO0UHyBWemTQCjwu7BKF/JS3/73+CXi22hzB3O8Y2W/1fuIMY3ulxpjBJL0/J7Oc2dGIMMdC/q7Wwv9w/Xd7pda9CG7N2vBNhJE/v1CHstuKTJEVtkU+d7tmv+kh+ROrHWH39ronpG5zUEPHy6FCd7R22+kWDi2q7J20+dJE1sii2Y7xjqQ4QCQIRdO4Os4+MK58YDWmnA8JzMV312ejQ+ea+le7Q4d0yACS/WDhAPNEx/g5hz1pC2LZLpzGsiT896qz+XPtptQ8YzfBYcsWpQvAslK/0YjQhDIcMcBWcadc+LEZvfec+ZEhITMx7HHXJOH9vaB8+sKv5UiQ+SRE2zcOGWWlfL5qkzfOW2rzBLCBPfPIpuEgPHdlc922KUtvoyDZZo/L3MZmU7mXwkCGQ4AGTIZ2YH92o0LbSLa6qZBukjaXP/atUXNgyQIF+As9/vPF6Eqj3eePTta/ainyOyDo+vcjJZe0x6z0idBXqyqhdVT+XFiiBCHLRKm5LOEpCBACFge0t4ZEchwxwEZeUUa2LfxN+PXhgQxVyWnn7+q3t1X12WXsXziknnR9yXIECVihTS9b91CXtG82eeMmW783E7zIRZbmJmrWDWHUQfKQDtU+UQPoEVmpcmDQIYDQYYCpvLJmnxmLqCNiYQOu3WR65TGlVzdioEVkksrhiFcAhdafOHq+ig/DfjQk2okaJ1mCpQiLQSIttxSszwiZtopoaUuPRY2U307S4E6UTbEA/h7oMjV5+3z938Xfuf7ASRD8vNlZZX3RkdWf9LmrGfTIC3m6hG3ab6eUOt2l3x9+vL5sjrabB6xWLetXBNtopQhQzQ//NpczWekqnH7nniA9KXmI/XFiiGtlcGCLxn/upQRXufBAp+VrhwCGQ4AGQIG56H5Xe6gUTIP4tXyQA1yo/Iu5zdkhVy5ut/9172L452zGvdtrZbHTVjqDpCGaOQqwWNyE7xaitAgXu6GPPb+pZbGBEXpIWquSks+64UKzZDPYhos5SWfI53/zefh76aEfABmuE+XfL4SFPIWmITkiw+JT/8bZfD39pIheVAOefI89fdtAZSf/D0rD8Bz1Im+yuqvcqAfSeO19axnsuDLJC3IIrdCf+pZ/vdtIwC/8FuRtB60j53bX0q+DpWMsrnR3L3afqN8zFjCaMqRIflAhidOJLxL8z62YG6cvrzsgg94hiDsv5DF48vBVMb6qXYuBzIcIDJEmLpFaH/NjpgGhgFiQo6XNsdvpQSMlRaf46cIK4BItcr9ekKzm1TfbTFaCAl1/cp1C93iFaXriqAu7OiznT0jUeV34Kg5dkyNHWb/HMLWJ2LlFqLWnjV2EoVA8fTpE/6HXPmd53iedH7S0zaubntucY+9boFdxTMFgtC5s7JNaWg7zybzLQXy9gTIPZjEPjJJzn681Z3+aKsbNbnV3aX2MBlWrd46iashQ+pGehs/tXPh8j43YV6XbVhZW1Qe5d4sTXtm6yp7nw73c/o0r8lLWNMf9Qd9BXD4s5nFb8lns8AzWBK+r0mbJx31IA4V369Pa2OUqJ/vz3blSVD/dc8vd+dMXmZjdb7mIPLBxcqMNX2WzD8N8uE54PvP9zELfx4ypD7tquehZm5H84XTQ0+KzF7N4QqiTExsUyCQc2GfM2fZuOEmykpTDoEMB4gMEQqI6CfjFruhrHIa3KGnzBCpLY1V9+L5YyLfMbOzYBIPU72umtrhNijNP1y/MNIWled+Z852z4s0S/kN8bU81bTS7XnarGi1VVrMbTZUECD/HO1lN/BL1y5w7z+vzv3Z6Dr3O016dgk9cfHJiRTCGz5y4Vx77gtXL3CPLYxiEdFmb61dYXGRe8XvluF1C7sJ/L2nwMkWTPZIo922vmkwsb2gj1E63mGzt4T8TcoLh7nPfw/9z72YPxm3xHyptIfg90rIkO+ZlMt714hcO03TefvvZrs3qxzfFitP//M6CSbb57RgcZJnofoTcyxpkrG5tVSy9DNN0A+or9hE+ILqz4vIGJdk2WkgH/TRd25dZGNBXzP2kG85MmecRkxsliUy233ogrnusxoPjlfa7qqeoT8h2Rumdbi/icfK+jNuH22lP/dV+755c4N7slHaVUJWskCZaJjpBSEvGVK3pxpXuk9eIgWAxV6L9lfU3vr2VbmC/n2fcGrKFAjTLGvdsQ8uLWwSVopAhgNFhgJCd5M0mLdxtVk8QJ+VhlbKb4gwQRIWUhM7pD80eq57dGG3c6++4H6hvh/qB1v1vXHacglCtunFdwR5X/lsQkBkghw9dnFkeiTS8P+42Z1mypuZIoHE9GFX2ZtRCDwaB28StNVXz73jrDnuofnd1qb/vV9yQT+iCVN3SNuD8pkMwu4ik1MfiUz8Yv0AqD+TiXOo37+90Q0jb241Jy/KIF//SXn8rXqxiz9RdbpThAaZlSPDggkvEE50qAgAYvBhHa/J38qL/2bSssipXp+QeTZuTqeZmD5/8uSS41NUrskyfaY0Zz++bBsXRRqkrW1e5d4GmcdlvfW3s9yEuV1GIsU0REzTBdKQ/06LlJWptJAoGi6LMzKJfB91V6ONg40J7fB9CQpjN13kONM04dwxrSnkJUPyR7t/u+TJ+knP/ezeJWYJJBftYqA/sKjQ4m0XGllX+793R5PqUN3FEIEMB4gMAQK9SGYsWpQJnPLfT6vtTGku/JaVhnIR3K/f2BAJpoSSkyGE2XBS5MbpHdKAYgezhIsjSGhNnrCSQIjYZfuRyM8ETCDUAdMhLdyQ4T2azO85Nz6homePfSCbDLnDMlp5a9z7pLGMqV1u8WU2gZQOM/wvL51vWubfalJCTmgfVgfSiWTQQNBMIA7iJZN1AQgvE4m+Iji8QKZ8aqzefe4c9wlpEV+4ZoGB3UpzvFOG6oW/CB/rO/CxKk0pMmRSQiL3i2gOliZlZcT5kO790uj+Mi6L18mymYWWZ+Ef9FVcL070YG6yAPnFCa2EHdU3Qa60XUTzg7uaSmrGtogJ58psjQKKlb+ANnriQ82WzuefBuPKOP7p2bGMaEww7SF85AFN32L4/IvR9Aza81+o/76ofv6i2gdZoY3ueVo0J858tPpd2bxkyKUhbBh6K4p6c7HGunX5N/lw+zzT1COLKraC1NffuKnBzPdkWXkRyHAAyRCBRQAxNYYieBrkN0mgL9egI5xZAq1ZaWbUO+1VCJFQoFlgCpPX3LY+EyYjHv3+MWkkDTLRcFSn8yJshrCGj1ywVRB5/mmZzen2VUWGegZNkvaR/z5qG+NGSBCuAMwbJgP9iSlpedMPcV9TF/x8PJOsC+A7Jgymqk1qytMnmh5+ocekKUMorPp/UDlM8gfmdtouOSd0eJbNJvqbuhUjQ0iX9JMX9biPX8SiFY0ThA0h8IrZ55euNL8gdQKM3TR9hw/RHPa0KdZY3yESoh7Ui/zpV1578Tf4bGmH+vZTl8tsXYLZmi1j1A8N82s3qF+NHIS4vyErnilKhiJf3BuepN8sEiY0xf0hev/QxU+1W7iKrzNtvEqWAwuqbx99MkuLEO37/NX1dsFCObO+GMgvFxmKV0aKtM1fGBMZ5Ji2YEqBOTK9udd8jVaW5siX1F+NUkhKWSDFUJ4MX97ofshk+NnUiKwGEsqTAYAMeT+KXSCb9dxg4ZhpJiS8t2UgzjYyiBDIeU+2mZ/LBFBE8F2tzDjR0yseGgWDf4k0NyM7Pf/WkbNshw4h99rSYYQx8LuEBtPxCdsxe62wYjbwHbfSmHABpWGlXG2E8NqyqyJDALHJLNlbGszZT7RauUw6JqsH6dAsOFposY7ejFEZ1z/fYWmSkxvNB8IZrYXR+oxnlebAc+ps44I+YGFIlgGBUC5m6Rkywfc+Xf0N+VC/EmQIYTNZv3mzSDfuU8rE78nGAhOMiZQsC/AdC9AMTT40KqtnbFazWcXGBeXQd5D2rx6U5hxvDOyrBRe/aTFfFiTBkbaDYk13v5HqM9qhcXmvNPG6tlWZmg791quyjrozViRUF3yCs0TGkBlt/+I1PvY1Wvgx7ek3r20W2qf86Zvm7jVG5mlZzYs8ZMj4Uz9e9VtQsjQW+IjRGNN5FgNm8qzW3sgSi8vCLUX9aWNWmlIoS4ZbJNQ48w+7fqGtwgMK5cmZwy1bNrnRU5a5w24YhDJK4ZYG931pNh0r11S1kqTBICNE7AwzkT3JfOD8uTZZPMl4MMHbzawV2WggAZOSAfZkhynACorJFE3AWjOnINek8x7h5ruzpZGZYOhZ7vVD4LImYdVkKOwh/FzWApOIctN5A36DPH48bnF0PjpOy+kEdlvx1/ln0VrZyfzg6FioT6pxb5E2g6bAziB5JfNOgvLpd144RsybEZTyyCJD8qHPr5U8WznUSX2OyThVRAiBk1e6DA+/OEGIbFR405OFgR1Z2sEzmK6Q3+6MF2WIFAkIhmzS+fM/JMFO/F5qM5tu/yQN0TaClJ4jnlervoxFOi2aJvW2M72MobSr40TCkDHyU7esz/zPJltqL4H3+HqLWUFRXaL6ZP2eB3nIkHHgWKndzgSJ00dqK4tnJZsfyDBywzuXCmXpb7Twaiy9smTY3x+ptGhvgwI1vl+T2L28Kfv3HQAGCTMlq/2VgonHBLSbZ9BUNMjcscemAwKQFGiIjptlPszKxsSRYPBSLSaU1+SYvI8s6ImON8Um3Tel7RGywm8+L/4mpMKbsDzLi/Xvnr1CWu+2Jk/VZKhn8dfh50yWnwUmP7f3vMvHXio9E2MJZ7bjtEwM+t42fah3rG2xWGGqpjXaNOhP6kt9/px+pBzlk0WGTJAmmfAc7Lc267l9RWTsSP7xRWniiXyLgfoAQocgLquztFj8pZTF2KH1oGXiFrBxldbzLS28S0QIaY2F9lP/I3g7pJ4looAF7UvXSqMT2Q5Vf+BzhNzIO5kWLYpbvd+Cn1FpIV806VdlIm9SOWwOfTA+0eT7vlvjW43WlBd5yJBP4kX/U7JumzeqG77DsZLVSslwnrRmgr4LZYkMOZY3KGRIuAA3plz4+DK7uHRAoTwhg82bN9qu0IUSgsznBgsyZ5kIdhFrEQ2nUiDcTL7hE5ptQpqQnspRoeZCcKt/FjLEJPb+RTQu6pU0FSBQwlsIaTGzTs8RUjKvnfsStw44Zj7XfL0TRzoay/HT7cX7BMRmaW9VkaEmJnc2ct8cE74ceVAu/hsE1NedY4Zcz++FFUKF2L+F2WpEWGO78TdMW57bbxVpbBusnhzLivp8WzIkP64ogwCtPZqIX7l+gZmGTOJ0vsVAnXGtvO+82Fel/vvA6DpXI42RPtu8MYoXPPpugugxX2tsU+ZRLWqQbjIv6sYi9mE0TfURL1nDsjgDfxpkq+/YnMJH6tsBaDO+TzRObyJ/VOQLCdPOTZKbRSv6onxjzfBtv51lITfE8SXlcCCRlwwZFxZ+T4bsYmMlVkKGyDw+aFwDjLknQ670GhQyxGdooRU/nRrZ9wMJ5UnQJ9qZaTT4JbOeGyz8cpoJ0UD5DD0Q2gfndm0NsZFQ4JhebTuKUTkQBebMCRObI6LQcwguC086jhBTkU0EMzeByI6wGAgcoYaUyPe+OV36PSItJuC/39lopJdFWlWRoepILNolImyEvhwZ+roRK+j9Z+yWIsC+v/lEqys4wWOBhkSLmeBpmCatunKbN7GA1DNNhtSF9mCOWn/THpWFWYl/NivfYsClwvVsuFh8v0Bi10/rMOWBsiCkS59WWbEGSuzolSo7OdnpG/r69hnLZRZTb+7nW+hWSSOe0tgTLaaqI5tWbLL5cQFod2xU2bleCFeAfKNIg62L7pfRMJFB6ilweQeXryJTLKblxrBSVEuGhCthRVREhrFmyA1Rngw/pbJYlAaHDMNucsVgsDk98JELJRAIokDIB/4NP8EZSHZ+Cd3AR0bb/0ULAgHA6RutMZE4gfH2xGZEdF9iv5lD5In2yE0ifnLiayKkZkuKWD2qIkM9h+ZJfFg5Exkw0SAFCxyPyXCYJjjtpv08w6TmUgkmg588hBkxHnknqidDTMZiQdcQGBbA8dLYzd2g9u6lsb/sGWniKW2tHMhvdf86N/KxZZGprLzYxUZL8/Xm/R3Eir6b/mWiatL/4v4lls7LgGl3ev7ocU1uGNq8+oBdePodH/OHuJhX443pfMYjra/pEzRMNsvMfYKMqd8Y71dkZfln6Nsrnm23AOuIEAV9HqLF5izVnY0WFl58j9TFt297kIsMVRYbZsQVbuMzrGADBRlms+TjBG5TlhY5tEQspEo0fY9AhoNAhqzKgGu3LHBYAki835WcKuF3gZX5UQkz4Sk2kJrAbHZkHSVi8iyQ9vSxiyNTiucPuWyeTRgGHfA32qcXQPxnhIgUI61qyRANjji6SsgQHyd1om68ysCToe+ne6QR+PEAXBmPC6FSMry1xHE8+sheg8AlvJSjMaEtaGXUMSvfYqDOTGbu1bNgbfJT/+ADo13Um/7hPku7TRzNTQRM3CKTl76P8onu8sMMZlz3lIywIcLvmMVsPvl+/4YWiM2SA98naFAQ3W7WlhrzDxPiBAkn69mlfH42XvM3brP1M+Mt6+Gzl9ebzD3d1FOQI5+2WpBHng0U3BrHPqiFyc95PVfpbjIL/YyWVe7P/Mab+pD3pTCfk1p0XgQyHAQyZHICzCYLsZEQQoqEQCDMFrqhT+K5jNwkzJjUBDMnhbmQn8DkMldCTFzsPBL7xupP3Tk3ay9DigUQbYw6IHjp/MCOJMNv31KcDCGV60QqfjzQtI55YInVz0/8cvBkWOpssp+kbMwYMegZ/Hj3z41uAsrKtxioN7hzZqe1x/JT/0DingwBk9Vi6SBDtZ3x4eYhbwoiB7hTzM87vNbCQohs8BogRx2tX5SeM+qcNGFMABub/8tlHL9Sv6pv/1Xton3pzRHGCZ/kaY+0uP25fNjGQXmaXzkad+ItCVjH5Kx0YUgjDxkCTuTYqSs/56U5o6XbuKtvk3kWA3WdumSleyuhSMin8mLxWbtubVG5L4VAhoNAhgCBJTi6cD2RcLCErlPmMwOOcHyX+EF+k1ASq0YoRNbqzMRgR/i3j7UaCfoV/nIJD78x2TkGaAKhNnH64Xit+AgLv6fzAzuSDA8tRYYiKzQcPx6cVOE8dzVkWE4zZJJCGpTDM2gUbNxVQ4bU7XaRVVIzZGMp6YeD9OhjOyLIM5rw506OQnDYkcZfepy0I3tZlwjqtIdb7YIFLAGewa2y/+9EYNIqyYOjmLSDvkPD/CIuFvr119GpE0/E6fpCkMRjPqi2cixvb2QIVwFjCshD9cPEZGyzog/yIi8ZogGyWRj1naA5AGGzOCafKwWsB87J2wZknAemdyV+xyQCGQ4SGTKghIb80w2ESKgsERhOdi5HYLBqlvZGRInASJiJv0Noi61oENRjDT0iL6WBvJTn925fZJMHcEGElRMT1r1zShPWzkKGPMcxvYLPUEL9XxJofFmVkuF1ymc/tB/1dZoMqS+3uhxJgDKLiXDgqDo7z5zesCoH8oPEr3quw8ibvmM3FD+u1+p4jr9558xX8ZnS/uHT3b9Jzlu7kbcNJh+8AhPND1KdrPFFWyQ9GzHcEMQdffTLMJElE53+RH7QMPeLif/t+mQsS5EAY0k7yXPi/C4zwfc50/sS474XmbBAPCBttdI+8citGb4YvVXyrbQBMtNz1InjpLlkS2NAXxFKZPKLbEmG0MQ5fZOVphwCGQ4SGfqJjkPcjohJ6AicZvWHCBAEEwKB42TWDyUGkfw4bcDRLk9eEBkBzIRx2FVfsfB98tJ5FszNpM3KC+wMZOhJjIlt4xHXn+df2Zzfqe/zGaW+9przNhso+p0zqxCWEYDKYmebHehKNQn6heOH5G/1Vn7sYqP1saB5MmTMkCs0XZNt9TG+XDaM2MHmirP3nKf+FwkxZrzUyMshdeY6MPK0vpdWyWYbEQj0KUHeZn4rLW+Io0/zyDD1g+iQGTZgjryzyQ3lJU6UAZQfO87LRJq0MyuPUshLhtSB67oIBPfyx8LAJR15NHU2DgsbYkqLpvtOySbzipMpWWnKIZDhIJEhE4LBJ/C18KIo4Ws3Nohg1kYXHTApJSwcJ0LdT8YNpsGER9Bw0lssndIymR9VOt61YiRAGdIgvi/th2dLkcnOQIY8Q78TCgF52eTRZPzMlfNdWw+hNfnGBNJBS+DYqGmYakuaDD041WLt5TmRyc/HL7Y65iVeQFn0E4HUvl8If+HiB993HixwmLf7clxQ9WLDgwnrXtlkxwjtZJHGEsIkIiCZHu3xyUUrI+1T/cIJHYi0Z3W/+8FYzRd9x5w55v6lNh5+Ac4DI0WNAVEPo59siy6hoC2qCxYLEQPVaId5yZATSLxY3mSDSAOVjU8Vgs5zSQRyw6tJv6KFwMsNwde4FvLIZhYCGQ4SGQIEmxUYYbAB06ThoP8TDd3us1fEO79a8b8mUxoBZ7Jm5QMgFsjhJpkF++ODUl5onKdManEXTGkraJ/7jpxt8W0IhNdQsrAzkSGnQv6cMCT6Q22wFb42uvE4nWcW0BIwgQsX4SqfNBnyHHV5XH1vPjPaownEpgVnf7fkHH/aRNvRYMwXSJ3VNnaEIZY0IeEX5HJaAuCtD1TmiN83u3799i83sdMcEQH+PAgiOWaktaD1y9Qu9Qs3AUHm1NcujFB+vOiLDahqTEPKgvCITfwBscQqg/awoPAa2Wp8b3nJ0MsGhxGsXxgPfY6SJmwLV+LZNEiLbDzV2KM+0SITl2MndbYjdjKQ4SCSIQOKX4jAXlvdNVF5sROOYluJGUTVgd/zrIbkxxVhFkqgwcfPxK4xF0GYZqXveKEU9+KV06p2FjKkLMr86T2SMdvlnOGGnljjDr9tkfnl0jGXaRB4Tl248KPw/hmVk0WGkAvaxDdsV17PqSzOb3N7NlpSHk0U4iVP8vZaKJo65rctQCkyhBz5zny6yLcIh8szCDD2ITVYBlzUQP2SaekbQmyOw4qgXcOnm2UAcfJ6TPrUbsSxi1y3rTv9T5tKaYxGPAIxin4hAdycNJhkCAgjQ5beM2rrJiM3xaPdldJKWTR6pUXbZRj0i9JxIcitWkCr0WY9AhkOIhkyCRDE8SIdm6gaNC7vtKN1CLP+J6yCkJo8fg7yQqDsLXwIgdqAz4m7/Cz4V8KMX2n9+vIm085ChvQR5bGrawsG5agubITgz+M5ykq3x9Lpe357SGnfaxtLUZ8UI0PSEN/Gznt0mkfPagzeParOjkXipsgqC/Adv0G+E+Z32SW3NtnVJyxwtSXurIRUIBvbeVZ5nDQ6WuRoAdnqF+IArd+VfzIdZdI33MJt461nGd8ocFz9qfnyw7sX2znfrOOkRC5gmdB+8s5qF+YyfXSq+oq6UQ6yirVRzZ2GlZAh/+MH5yVQWEiMHQvh6Q+3mBKRdR6bPmauTqzvji7Cjctgo4mb17PamBeBDAeRDAETiAP672b1U3lM+D1R7Slfg4ifA60gPRGygGAgDOyYec2S/OyEgf7m6vbhDy21vNJClMbOQoaACcn5ZHsfhiaD9Y0mJldaYQKyacCEJg2g7tSNXfTxqgshS+R/gMzWcvcZMlm5ONfkjXbH5Mv4XDO13dpL3yEPlGNl6m/iQnHYcwWWaeZKAzBdz5JWSn2K9Tn5sFlgZrzqCdF//OK5UVyo2nnnzBWWPmsik5a7Bg+KtScI9K/jd+UM+02t3faUFahMfgRhE6XA/YZomIxHul0sDs8uWWmX2Xpi4eIQNneSY5QXlZAhQD44WvouYi1ZzLRAsRmFO4D+Rs6oL5ov9SX0Bj+5XYLBYqY0XGxLzGdas64UgQwHmQwhFiZYdNuwygS+fAkK3yN0CGpW+iR4BoFiYnGpqK3kibZwgQNBvDYxU2nTQMB2FjLkOSYR53H9pPckxcQ4/LZGMyvx07FwcNwKbZsgZ67Gx9RE2+KctwUwK30xMgS0nQtC7LYTymLSamKxmYEJCylO0++UVS9wZRdH/RgrIzDVKyKjGWb+9pbx9zJmbI5YwHesARlU7nvV/7Nbt76vJA0WCk4X4QqxcpXOzHOVz8404VZZVgVjSBgX4UMslt+5tdGuAuMSCPqftnF6g/PSdraXPiB/jTGaKsRejZZVKRlSBt9zo/dukBt1iMeCQwoT5nW6+W199pIzf8GuadQ8qz7ARUFMbanFKC8CGQ4yGfpJcg136FEmAhJPdLSK8yYvq8jPgeAw+ewl3UxkT7ASOq7bJ9QmS+jSYPKh5dirTSEq5cWuZBYZQjomfHoOskEbq4QM7eJeNgrUZsI40mQI6CeAuWomKFqCTYy4jeo7tD6CqpM7n+T7rnPqRNCdW18IpXoS98frUbPIkHphEuOA//xV8W5kvCD4siAcNDg2pMy89WNHmcqfCyt+fE98MUKOvsBU5lp7LmwYchJ5CWojl6AQWwfpZaXjpWB8WoCy12RJK1LldbKECzFO6XSM4SSZ8/aOkXi3ljZA4NQdE9O0aN8u8hZwweCzK1afcvBk+FE2xGirxgffaDEyBNQVuf2RFpbdfV0S485RVmJ07R0ufEe+GoM99NtPNAZsPvrz3tuDQIaDTIam9UiwODFgN6r4SScB5Q1oUxpXWoBtVtossJKyAv6nbTgoHyYnOCnSMv1NNllpk4AM0bbs3RloKxIuXj6VRYaYWlaGnmMHtVxAt4cnw2/ctDAa23gyR9ePbbsARHVfb/mjrWD2U69tALGqLvz+mSvqpT10W33G1K6w8bT2qJyTJmaTIYgIcYNpSGh375PGaxONvEG6TAhFn0xM6naJzDguXSi3wePBgkcws7lLyIv+VH/Ye2HUz6XGjD7kNQWFCxdYKFSXaJMjeyFl7Diqxm65ndCIYxJf0yZAXVSPA6RhE3MIEZZ7M14pQIa4hezqMMZb404sIQRZapFmQWnvXWObiQfG77GxOifr6sdGcs8N4Ly1kdfzDgQRgkCGg0yGAMGEZDDb/k0Cd5TI5XCZTKc/zKs5K3P6QoQAfxCrIv0GfjyuyeLcPFlmpU0C8uASTM4BY4JxHRW3M7NL5y9U5RN/HeYVdeY5bl5h95L78tJ5pmELgfp19JQ2u7yUeqIJ4bMrRqb45hgLrlU77eEWO3J2sLQMzHlMaCYBJhhXU3E8kcsQeJ4+xszmqjPqiTbLxgNkWKo//HVX+Mi4LZvLLvDtUQ7lATZIuFYMnyavJmhRmdQ/i2SLgfpxUQTH5tgp5xIP3A9cZ8ZGQVYaDxZTArJPntRifchYUdcpi7Z9t40HfU+7eW0sr8/klaX0Gy/04lIH+pP3ofCyq8NkQrOJt3pNfnIvBtqJlscNSsg6baXefFdOzlkMAbvlR97RZJeRcCuPjYPqzK3dhChx9dfjC6PTOlkbR9UikOEOIEOAYGKaoSHg4+ETh28e4soC2hvaneUX55nHXEsCQUrmUYygmIy+zjxfiQDi8IYQk/XM02a0CJzmvMqAa9zRqjDr2XXmPcmE3ZBfsi5MxEJ79Jm3P6gPz5KOTRl2hpmQ+FS5cJSXUUHOtIM6USZkk5VXKUAGjHmyL/IQKn1oab38CLST9vJbVhoP5IRyODHDZR4PyXS+t67TFs7JDd2x7G8wbbAcWeVFpHVvravJeeqZYmAskDe0dsKgWPRtHFTnKdKOOU5I25HVasagFMqTYfKFUF7NNrNMwEzLIpm82IXIENhqnULWc3kxEHnlTZ/3uSwk01aangkKUUFEjBGf/F9s4lZbDiBNujzAxIN4ql24kkjWr9I6VpuWZ61dakOyHweyXWlUW1cP0lA3iDE5DiyS1eSXB2XJ8CUxO/eMHXlLgx0lw0fzIanXODQttg2ChMQKRCnkJcpdjAwDAgJ2XpQlQ8wR1FJWy7aefjezZZX7fX2X+RjwBRHOwG0Th45psIPWbPfbjcyQDY7s1xBlrFFy3Q6/HxtdaRTIMCAg4PVGWTL08Go2pIEPgqM0hAsQ8Ik6iy1PHBgXDhBEetmz7RZKwOsAj7i90X352gUWKMn190ZEEN8vno+CRkWG3yEGi/cYx9vpOwSBDAMCAmLkJsNS8H4WI0qZ1dxVBkkCbHxu7yVQlmBhHNKcKjjriWW2jc6tHLwm9ORJze4AQk/QGr1GiTbJ9jwaZSLuaMAQyDAgICDGgJBhKbBblkmU0iohUe5sYzuf10c+MK/Lwjsukvk9Qub3j8YuNj8lQZt2sgAyhCi92Q1RYnZXS5SBDAMCAmIMOhkWAztCECWEiF+SXaMCUb4YESWxSbxGkiNEvEKTIGFi3rgHjlgj3gnCkSqOiBm5JUkyueNdjCgDGQYEBMR43ciwFDxRspVuGmXCR8kLk/idY1Dc9TazpdeCbYkL4zaSsx9fZn7Kb49ZZAGadtb1NyLENEkC/c8ZyECGAQEBOyUZloIR5YYo5ggCY6ebF8NAlJjhPMO1RRAcR4s4ksT7a3kn6/lPttllBETF8wImbicmAt9euan80mUFBATsOnjDkWEpREQZ+SgJKoUoOdeJ+e3PwnL8jeNgHIPipAEbO9ydNhiBpwEBAW8c/L8iw1LwprdF4Yss7ViUCBKS5LesNAEBAbsOdhkyDAgICCiFQIYBAQEBQiDDgICAACGQYUBAQMC6de7/ALXHqVGuZVBRAAAAAElFTkSuQmCC;" parent="1" vertex="1">
                    <mxGeometry x="10" y="10" width="260" height="57.15" as="geometry"/>
                </mxCell>
                <mxCell id="146" style="edgeStyle=none;html=1;exitX=1;exitY=0.5;exitDx=0;exitDy=0;entryX=0;entryY=0.25;entryDx=0;entryDy=0;strokeColor=#000000;strokeWidth=2;fontFamily=Helvetica;fontSize=24;fontColor=#000000;" parent="1" source="5" target="140" edge="1">
                    <mxGeometry relative="1" as="geometry"/>
                </mxCell>
                <mxCell id="151" value="- Manage" style="edgeLabel;html=1;align=left;verticalAlign=middle;resizable=0;points=[];fontSize=24;fontFamily=Helvetica;fontColor=#000000;labelBackgroundColor=none;" parent="146" vertex="1" connectable="0">
                    <mxGeometry x="-0.2212" y="-1" relative="1" as="geometry">
                        <mxPoint x="-46" y="19" as="offset"/>
                    </mxGeometry>
                </mxCell>
                <mxCell id="5" value="" style="shape=image;verticalLabelPosition=bottom;labelBackgroundColor=default;verticalAlign=top;aspect=fixed;imageAspect=0;image=data:image/png,iVBORw0KGgoAAAANSUhEUgAAAHYAAABlCAYAAACY5RckAAAAAXNSR0IArs4c6QAAAARnQU1BAACxjwv8YQUAAAAJcEhZcwAAFxEAABcRAcom8z8AABpFSURBVHhe7V0JlFxFuR4QEPXxXBAkEDLpu/TEYfFo3PB5XtyP61GUxeXgUxRQhCe468M3uLAZyDZ9t55MNgxCVEjkGTkghBAFQoIIRMIespCZ6bt0T8+EbOP0+77/VvdsPT0zSSTpmf7PqTM991b9t+r//vr/v+rWraqbSKQ7/vs0x+80W7oKhhMOSeaCnQXdCR8xneAkVaRG1UBaKvyCbgd7zXRneWDn7yjotr814YanqSI1qgbSrfBcALunErCGHWzW7PBUVaRG1UA1YMcp1YAdp1QDdpySCp56JCp2s0OS2Yqo2Pa31YKnKiP0xs8ZblRoWLQXIL40JDXcWACw4TbTCt6sitSoGqg+1XECwL3MdIMrdCf4cSlZ8V/DzjTh95cn37DlVapIjQ40NS4rHGXM7X1luVS/cNPRdcsKr1BZ66Z764/ktbJ5mzYdPaOpcITKWqODSUkv/17dCdfALK7F3wcGJ8PNPYwAp5ng6qm2U3Qveyeurxucj8nwsusMJ7q5fmHhaM1uO1V3/Ltgjh8qm9fJPWxY4SI8/42qKjU6kJS0o28lF+yC39spkerglFz8TwY5z0/yCq9OpKNPJhf1DJ8X93Qnyk9zM5MS9LFerpBcuLt8XvA1nKAjYUWnq6rU6ECS6YQXmQBAotVhhiUA9gkCq3nhx0pRbrm8Ld2c/800wr/qlv+Zl3u4o3nRa/H8c8za/PP4AtZwMpeL9UnnH9bmZT6mLk9MGi/ATktnkjTtSQylkgt2F4x0V16zg/9WtycejRdgDTucJ4Bi7AyACwQYPr4Xdf+uyjKxyHDDb4wMbLBRgHXCj5vzuysDa4f+tFkvTNKc4MxRALsl0bz/M0+m3a5BkbYmEdQNeUZr9w7dypyrsk4cgqZ/s+HXBZkJalgyNE27uQAA/M2Tb+h9VcINPyF5mcrl/U2BPXbXqXPa30RgTfi7aUuHyUu+VhDp6fAUVZV9JsPyL04uAKjSW/srEHou6oC/WzBs01X2iUFTnegtmuW3mG7Uqrvh/FJyQvkfJq3VtP3v1xUKhyXT2QTASJluLs6r8sQpmg8z3QpeVzU2FY6aYuc0jXnT+Vb04jgvE3/b0fxky0utRqq9qX529nWqKvtEM1YVjgDfpcnFPYNALaZIhlyod4sqUqNqoJOb/ROhLP8wW2F2ywJbdCdhSCVWxaqTYHoa0aAUTOhi3fHRUwYm+MgluhP9eLpXOFLy2kEaDV8AP9U6ODGv4WUvb2oqHF4/u20qesdc8F5UNq+T5fVfkG+Dk52KwGgezGT5vG64BFHrFTId2Zo/znSzcwwHecvVl+2wMr867ZrNr1dNLJFmt52K+rw0nC+XBBOdXLiHbuJKVaw6Cabx63yDwsYMfqsi1+FP6XemuJlJAPV8mR2S2acyeZf0QiDBcwDr1fSxSb6tGS4vZ6mcsKtxYccJmht81oCwk4uGqQP4og4d9VQA13+7zGgNx5egpHOF+jJvgnSr4z2VIvViIn+Y5T/VQUFV0eojww2+St9ienk2ZkiisBCxPktgTTv4L9ODtruIjMvlnY+8loqKZbhTjIrL5G0Rk+f3G+7shY8tnxd8GRVPTUX1GJJMr8gX7UDv3lvv5aepJpbIsDIzKkXqxSTg2/4WtOEiRPcXoZ4/g8L+Cv7+WsQHP0EdztPdzNsmt2x5g2J96FEMLBpDwAY1UK4DWPSWZ/qAPXjj2D5gK/BFOwDsnnLAJpy2d1aq/8CklMXLcnZKwJZE5UN51H0vwH4ceX+hzWk79FZ2TCRgp872G1A+jC3D0LJDEkCV50gCyMXfkAGfw3rJC4p052bI6GuHlOmeSMBy4h98VtM/lyu7r4ljdQR+j79lP4djB5QmErAkRN+/TC7ha0Ca2qHlx5wkit6Ftvhz1SMODTJd/0JGkg2IPPl3cGq4SaLiNgKbhLmRfBjgl827lGuTgs0ENuH6n+IMFSPMsnmp5U64k8AaqY6zCF7DjcPUAXwBbMioOGH572DZYfkyggavKU6+UTVxACU8/x2ml+2QIKocUGNKgQou/fZE87akesShQRjunAHtvQN+Y7Vhh6uYAM69TPJ/y47VmhN4ssQl3fluaOjdupvtu9+vjOTFeDReQRGegrxD+JbKpLtWm06wlOuYEs3tp0FIK4evQ9d9phO2GnODf9et8GTkvUP3sqW8/cuQB+pwm2Z3Ha+aOIRgNhfGc8X712tpYcR6ONHFivUhSFx/xPVKg1PTqqHrknitTN7pF64/UuXoo1Vj4Vs+79j44noZmnzLlleh178b5v9KKOZjfUO28qCNlAgofTXMvsVpUfWYl5+g7Y3JdPfX0EO/gwZeVkpO8G2Mzb5FrYNJ+dbgJNet4NJSXjsakqeYJK9bzBt9G8OBSyrydaJLivUYsQ79846Gr4W6OuH3kH8m0nLU/SnDyeZoOuO4oTxgo0l8iWC2cLzsz2ts2nDwQIVZ/Cg09EX6IPqyCZsqBF0VEwIkMbvgITNvLflNphdepMR7cIjLPHU7vJevv+Kx2ARM5cAaNiHKRY8kgJwS5Tg1fs2X3QMrsMl0O68x5nYc/Nd6DfP9E2GSnojfNZZrSC0NSKIIweMYvjyADrEaYC7H79kJJzjLmLv9OCXWg08nC7DB4zVgR04y122H/9CcjMnJjPqFhaOVGA890uy24zEMeKQG7MgpuXAvx8s/VaI7tKnhuo3HIFp8UFYGlGlMLcUpicAIfzsSVnuVLEpvKhwOLbyHgcDgxtSSSvCrVHyY4YVc1qMkd+iT4WRWDL/Op5Y4JsXfnVoqeq8SWXWQbkeuvNEYc+g/MZLJ3uqEv1Piqh4y3PCH8vaG7xfLNGxCp3jVxh7Tjf5Tiat6SEtnz4Sf3Tvcq7mJm+BbuX7KCZZyUZ0SV/XQVNtv0J1o2J3PJmriqzvdzUYA9p1KVNVFk7wXX63Z/j8OzDvIcZIQb9C3albmeiWmaqTCYQjl5/Mj5LKNnICJ87+6FTzJReRKSNVJZqrjK/HsUy0yluGN19lj2OHZSjzVSwm3/TTd8SM1Zpu4yc3KZARMsKdEU900fT0/0Qgn/ERFPMPkP5JoaX+TEk31E1ceIIDq5brYco0e34kLzxhjBBHXbimRjA8ynR0nYTy7Wb7gLtv48ZtkBUU6v0uf1/FlJY7xRYiOZ0kQNWGmF9FT+YkGkm51/FiJYfyRMXd7YxxETYzJCgGVi9Pt6NqqenOzL6TbwXXqU8Ehghg/CT11frcMbTBe/VVVThmOleqdtqkA9cnxvKqCPtVoye/RqmVFxIEiw/a/yEH6uBvX8qW57N2UDxBPfF01d2KRYflz4/2OxsfrPL694lfxaM+jCbv9Q6qZE4+m2LnX6060UrYUqGZwOaHPMSrfrdr+Yn6Vp5o4cWmK+8IkBBr38CuBapy4kNX58Rz4k7rtn3f2smWl/ZInPPETSd0Nb6VZro5hEHoo6inTo16u3XSj64y5Wyer5tSoPx173cZjNNv/pe7lujmfOurP+V/GRB8qPZRm1w0jDGNsfi+rmlCjSqTPbXs//O5dRjq3R5aNHOweTP9JMNE70TO5oPsZIx1eze9vVZVrNGry1h+pO+E5EOJyLqmR4IqfH7IXy1YF/6KJDfIF//iD4u74w6j4g6gtphMuS9qZr09b3HmsqmWN9ofMVPAuCPV7EPzdPDESf3tjoe+R8aJMrqNXy0I5iaxHAh33kU/MKsup4Kf4iafisRNpo+FlPcPxv1Trnf9C4pYCU9JtCT2dOwdCv153gpXozY8got6i22GeoNH38bPDvt1Re/sl/M89KfhZolqiw3KIZLfBOjym28GfoUC27mQvMOzMW/d3Q8wa7QfJnhDp8BTNzn6A+/yajn+R+mL+pwhurgbo1wO4WTCxMzUnvEpzgysSuC/5kF9L+R9scMPTJrfkDt0dzmpUoxrVqEY1qlGNalSjGtWoRi8LceoN48cm3QnsKU5QdsPIQ5XenNpez9WUmpe9irveqMs1IgHQa4rn3uhOuPpNS9peo24d2jT36VfqdnCT1H1poZCAYsoeiTUCNTUdbjjBiuSNvQX5BtQO85V2Az2UiLNQAPYpHqGiNkRZwz2X1O0JTk2Fw7mngrzq4ms3OwirCVjNDp+gQsrKCDtcVQO2SNUPrHykXQN2MNWAHadUA3acUg3Y6qTGZYWjkt6LbzSd4CQm/uY1dXufgeXZcUkvL3wnI01r3nbsdK/Mtu1jJL6k55awxtxgckOzfyLBm1Fu63jQ/gDL3b5Z79Hs+m1gWDWtufNYrtCsT3WcMMXe/HqOJtTtEYnt4Pto9W+JuD80ZchVkzE2+TfymrpdnrgBsmkFl2pOdBuGMM8CvM54FUL4rOHlfs8Pm6fMa0tIXju4ZbTATmuWo60vB78/YKjxvG4FGB6Rd/C06UTLNMv/hjbnxSkq+6iJG04advQj1PdPuu1vRj27DNvPge9G08ku1azgq4k5A78s31dg6+3MW02383e6G+3AM26pX1h+BQbk92ZZDOCEK8D7ad1CfZwggIweM9xooZ7yz6u0L/GMpsIRyPtT08nldDf7APnxOrdcwvXLRIZWsEnhQnyeR77bdafjksZUx78Jk350GCrxTcPLP8VPGNhgAlb87pO/eS3+vCF6wrCii5F/uSwjrQAseyMBNVvyz8qKxCF8KdzdsqjM9DofNwCEKlqR2ADdCq80WvLbhG8r99AfxJc8CZyXXZdIdZylio4ZWG51BMF9x0h3bue2tLKGiovf7fCLKouQnELiZX9gpPObZHGetLW7r058HtddybKd7ENGc/A5VXQATZnVrkExX2L9udQHv105/87LP9fHtww2SAB8qWJT3Po9cGTAzoaqlXyyvgiMJLEyavWgWnPLhu3g/8MB2zDfPwZau0hWH3IloMN1u+DLbdMBRh/fbMyXjfY6e6GBc2jGFJshpM1sO95wsytY1+L2Q1y4Jo1TfOWwBS5aQxJl9HK7qWAsz89ORgtsfXN4hu5l75QFdUjyLJZBO7RU5uMqW91b0Hs1L3uzCF21VWQobY1lGC+kixfayb7FbufuhBX8D92aYiPETVpQp50ETdpg+zvJL5Y75C18+9palGFx8V7MBd0ejbRMaiBPkeJDkRFmjQJeh/RbJjxoHcBTzPEwgszEhpYBllpuWOEi0ewiXzQSCtQD07QW5ZbRR6PX/Q2muFRpfhuTbIXmpfzZgxtMop9C+ZVsVLEOFCb47kQd1iDdgrreqtnBBoNgK2HSZeDeZu3a6LXHobePBCyPGoP1+F8IP5SPytSz2IvQnm2JVHBJ8XtY8pN4o1QntlXq1APZPcT64DfN55NsXxFg6c1IAO5H8lBFcgYtOo0A6wSlZ8fYSK/cY1j+/cgjMkSe9VyZKXJww/nCBABeKA9S2qEeeodpBx+SXU8oXCT+RkM/Av9yp/RAPohaOQyw7B2xJsWVYh7dyf5Bb8m+z5ibP074Liu8Ysosnhmb+SRM3b1ySjJ7LxUBZdCAIXs5oF7XiXDlEwwIycv1gu+NeP67G2/IvYFflNNH6da2kwHe59HQv1Or5bx2O1xL68SApBKwieb2D6Nda3hPBK96CwWtu7nfouyAkyHB92fcgU3kRzmi/pob3cJNMbn7uvhMWCA5Xs0Kz4W//Zv0eoJLeXudu00nLPX+gcAqGXMdtGAU3ZJ0wv9gUCZfz0OGxEZv9t+XsMJP8OyfOkZT0KRnpXF8CACD2XFOrzCZ3zB/4zEQYjo2dfH63sHAmnZO051ou+QRAACqG86pFLmdiOgY2rdUwKVmsqdbmQ2so8pCJZyO+naJsLnGuKVrN4D+CW4Nuz0Ao2TwnZ2wg5t4aC+vIYIe6GOd6G4qWnIp5OGE1wCoHaI8qIcopZjN3PMIxi6oO3vgB1l6c+ZtKONLvamQ6a69ph1dUc7aFInRLnuwgIseKc+y/fuLgc8QYEXZ81Tgn9eN5oMw3Y7OM2lmlCmEJt1NE6puD0unz2x7jWZn7in5NwWs9ESQZoU/LPo4AoSI9/ZKPrNI9H1o4FopK728u9dIBeer23WwGCkBnPf4bB5gX0GAw9GA4Cluw90JfqQN4YqPVAKNt3qPCpqTXVI/zy97QGECiiDHgIq164YLCSx1qyKxDlCgdXFb6R/hs1Wv1VNtp/QHVsy6lVk66qESwFgu2i+a2bk3YWU+oW6NSKyE3tK1h8d8FYEt9i5o42r609h0ZLs01/+gFBoFQYPPkqPD6KeW8NjuqJXXJRCDKZUAC3XG9YzmdJpSaIzUH1ixOnbYDaXeVfLzVFb2Pjt8zEj5XxrulZ58+2v7f5GvFeL8eVimM7gQnaayUmJ7EEd8F6b4n7Gi7kAHCFLkCxk0FoFlgvvr5PHi8tDREDTmRdG0uLf+bfB4rxLRd+DhD7NsEVg29PQlva+BaYJ554FBexhAPMTJA1VsRCJfCOsF8ozNZLCmrmnDUUnPnwahbaNPkmO3HX+lKjJmGgCsMnUCDBW8CKwc7e3foIqUpQZ7Gw8B9gUAlEVQ143/H4Qs/goZPDBCWgOZP4r8PYIB2orOci/5ctxaBJYRPfLcOeIERH+C0P4pXZ3RnBOsOHsML5s5q4MG3MayAqzlRwxKeEwnFAYAxIfUw1yuUEVGRbFi+HeJwgBECOAJ8uWnjPgt+yGr67NVkTHTEGAJpOIbWxmAy17kde7kxIkqNoToXwF+3y500kl4rh3qPkKSYEwFZoJBrMQbyLc/sHL6mAOXMxaCxvQIUwE23Bdgl5eAtQOf5mVqvOREAbsXAPi3qyKjIpl4cII/iwAIoBVsjIHd/g5obh+wGOuqImOmAcDaBJWKks1zX2H0mttKwSSeA9C6ELWX3cF0KLBxmRjcsSU569YK7iPfAcDKBEU4Kr9dIpiOrWKGIESaBQ491K0RiXOfEPSjUjH6PCt8koGXAGMXTTEDs2A9D/FVxUYklD8ByrCVAJIHzZpx6dOvTDRnkuC7lb4oNsXBHarImKkRwCIo2kBgRSm9zhd0p/3TvGe05o/Dc1bHdQfokI3hhh2I0GdI4X6USKNOTpAx0+BBU0xfbYVrkXi02YOjTQBxnenmVmipDjnhg98qDQDWCW154GgJAvxdHEAAXC/fo6ciadxoCGU/jRBc+Qf0LgyUi6E4wLinL3jKdeupjo9KoVEQegC3EOoXPIULeF0pzIP0OaJIbhQYw5y4PBI1tmwBsIEAK5MPqcw9df0235I5WQBfBFeCIy/39OCDkDjbhPqu4THb9NEI6PIA9T2cBOGQqlKqn73pdQ3X+cfEgda2YyffcH8pDuk/3Nk3YN3cufFYSg137OAvNHvq9rDESmmO/1fRZpaFAEw3vFDdhu/OXi69CqDzHp0/fae6PSzJQNsJHqEVILjoTb0YO35F3YYyhbNF2DB98TAlWILhTtk3OJWoEYKF8ilg0X47XDX4k0qtefvbAdTW4vQg3QrM98P6gvBklUUIZa/uG+4gssUYX90akYZ7Q7TfwMbhergx1kxOUOwsaG52sbxeGoYmQ9t1L3tj3OAYVM32n4Gmlho8dWZUj3tbinnEV9lRmhqqsgwh2VnGjW6VXVPhq+KI2n+UExcqS13Sik4H8FnxYwxuWrr2QqF+Xva0ZkWcLIECpCCcG3U7N53X2GP6AwuFvrfct7Io92EAFinTL/OyAPku+miVBZ0j8zZExBlRxjR8bUtXD3g3lT1tWhFf++lebgH4rUO9rhw8nNpvYEmctuOsRtFPiL91w/tMN/is5kVTOLHA97AMihJ28DkEGWsEMObFg5F60ZDSJEKRDKvjYgDQG08PxtoMX3U3oudPcbqP2sp3s4yiTTv8vOFF8cSE4ou/PbQoil2JAPbP4uCG+eJpNpjlWzkNOM3NTOL8Ld+ywPwbhp09H4q1keZ7Gg/td4L7eF+79rnXjgZYktac+byR7uouuqy4EwQ3g08pbiA4sSVR06HxVOeypO1/gMM3TqLMWFU4QuTphWdDcddTSWLQAihn8C7FSuiAAMvZDAyMr5cZF26Nx94CcE1qnxPwNdpK9LY/UhCsdGwC0QsJKnwPArBZdYWhsz8EDQJz2OAYKPBVCgG+GL8Ff8TflfDVT/B+vL8x+DLq5W/bv1qxGkDs9QD399J76IsJMOvh+By6rYcQbscY9w7wfoa+OFaoSIYNeOZTVFTyGC2wJAj/EtSxR+pGN0DFcsJ5xdk0rqfWUxlZdCARMhWAeWyMOuxwLdJy8EC9gsflLZRqqwoOd/I9rzxI0YEBFsR3pvANM2lGRPMgCBEYQKQAJRFQgiJmkmB19bBMpR0/OSFt2oFFgcS9LB4fkleRb7GXxnwBVrpzD8aOV1UyZfKGx41uYlmzVYRcEniJr/j4uB3JxTLX2607mQtYfvINMp23sR+wa6ZckxvW/ZBMy/+5KAmBo6LSCvWbuGed8KybqGRx7MGJj2Kdiq8S+8mQQWA6vwtt/cHgaVE5W8EOdhWBRccrnS3AWMVMZ8/UrejLHJmoy5WJc8foBY9KRCuazt7FmRgFNH0btSzd+Xf0mvNUsZHoMAjgAkTdGyS65KC8P19lpmMflX8I2nmOKleR2FtMK/welPE5UTQOW4QvB/zkC6ESXPCGP1utzct8TBWVCBs95X4KvWFxL3vN/9F8q9tlqXHZhqM0J/BUPUVxEFcMcBWcHYJb+T7k88LQOnGcW2wrZOh1rjWbgzNV0QEkb4E4GYO8MkGBDqRu1dW74RncbRXyn5UYyyFNnMdMpsJzoFW/QeHnodkvQXt28jeChKUwJ2cxPFfZR03azGePN1PhF+BLl4HfJvKkuUF6Bg1eDJP+meFedlci09lyEpTjfNTzDxD8FjR6F8zeDghGdoSZ6nZ/pNyLDfjvj6IXb0eeZ6aO8sw5WZDg+K1QnB7ECgsnNZV/YSKvDJ3wIriwP6Fe7QCGrqUnbnf4az2FoWKF0UcTejDKXAa5UD5rDLfvvHbKiLGDno4uLb+fY13d/wPeXYD9wCY43gAAAABJRU5ErkJggg==;" parent="1" vertex="1">
                    <mxGeometry x="270" y="250" width="105.15" height="90" as="geometry"/>
                </mxCell>
                <mxCell id="147" style="edgeStyle=none;html=1;exitX=1;exitY=0.5;exitDx=0;exitDy=0;entryX=0;entryY=0;entryDx=0;entryDy=30;entryPerimeter=0;strokeColor=#000000;strokeWidth=2;fontFamily=Helvetica;fontSize=24;fontColor=#000000;" parent="1" source="7" target="138" edge="1">
                    <mxGeometry relative="1" as="geometry">
                        <mxPoint x="260" y="565" as="sourcePoint"/>
                    </mxGeometry>
                </mxCell>
                <mxCell id="149" value="- Access&lt;br&gt;- Operate" style="edgeLabel;html=1;align=left;verticalAlign=middle;resizable=0;points=[];fontSize=24;fontFamily=Helvetica;fontColor=#000000;labelBackgroundColor=none;" parent="147" vertex="1" connectable="0">
                    <mxGeometry x="-0.467" y="4" relative="1" as="geometry">
                        <mxPoint x="-83" y="34" as="offset"/>
                    </mxGeometry>
                </mxCell>
                <mxCell id="7" value="" style="shape=image;verticalLabelPosition=bottom;labelBackgroundColor=default;verticalAlign=top;aspect=fixed;imageAspect=0;image=data:image/png,iVBORw0KGgoAAAANSUhEUgAAAL0AAABqCAYAAADp7FCnAAAAAXNSR0IArs4c6QAAAARnQU1BAACxjwv8YQUAAAAJcEhZcwAAFxEAABcRAcom8z8AAB/XSURBVHhe7Z0JeBvF2ccnpS3QEu6jEFvalZ1A833lKL2/Umj7cbSUo5SUMxdJHNu5CEdwEttyEgKUchQohxNLWkk+Yjt3aQhXAw1HEjtOgHAl8AHhyGVLu5JlO4nj/f7v7EjIluxIthOSMv/neR/Lo9Hu7Mxv3nlndrRiUlJSUlJSUlJSUl+VhtUccXTBi1eeOHf9X+1lu8qyKiJzbO7gbyhd5JCS+g/SpBVHsvxFf/vGxKV7jpiywvxu0RpT8TWbDn8oomj6IsUduCqjeuvRIreU1GGunOUnswmLXGziMpPlLzXZuGqTjfSbx8+uN7Nr9pqO6nZT8ertqs941uENXZPxoIRf6nDW5Boby1u0kk1+GsAvNtn4WpPl1JhshM88puAlM6uyxQTsploOr1/TbqpevUMtjzyj+pqGnb/c/I44ipTUYaL8ZdlswuJX2dRnTDZhiclyF1rQj4WnH+E1Bxa8bGZVCeijVh4xs2o6TNUfIs//L4cWHH2W1zhJHFFK6hDWuOofIIavZ1NXAnh4+PxFAnp4+TGA/maCHp6+K/TCHBUReP59BD/+D61XNWPqYK1xkDi6lNQhpryF/8smLtnCbhUenoDvCv1wAX00vOnOEPZkLUDcX9mGia++yeEJ3mnzN58uziQldQgod+mV8Ozb2a0rLOCjXj4KPcXzYxZY0N8loPcC7v2ZP2w6qvZgBGgzVU/wHdUbvO20Zzu+K84qJfUVKX/RTWzC0h1syj8t2KPGgY+Dfiygp/AmHeij5rPgJ++veAIuu+ejo8TZpaQOsnJq74Jnj7DJ/wDkBHqc5QF4svFxE9mbtd5BL4zCHdUbMhVv86WiBFJSB00DWG7tLHh4k01abnn1rhYPfQ5BT56+b9AT8Fm1pmn3hEtEOaSkDoKmVh8NmB9gEwl4uvEUB3q85QF2slxao4fx1Zu+Qm+Y2YtNhDihB0VppKQOsOgua+4iP5v0tMmhTwZ71KLQR29M8fCmlzF9nHHo3foDokRSUgdQkytPA/BL2JQVAD5uSbIni0JPS5YU3gzvJ08voZc64MqtPpPlL3mWT1jj1+B7sgRPD+hvsqB3AHoFAPfGsiT0UgdceQt+DHjfZJPFkmQywJNZFHoe0yO0GVMF6D3mwDtXmY4KCb1UbzRzvZ2VrJ/KSjZOZ866n4jU/tW4Jb+Ah/+A33TiS5FJ4O7JuKeHlydPf4uAfpqEXqo3Kqr7KStpeJPd877J7ttsslkbtgH8iczp/IbI0XeNq74c4G7lN52SAb0/iw9vxgF6uiNLE9npr1jQa4A4VSPgxeusRRL6r5+cay5hsxr+j93LYTdZCWzuOyabvdEE+G7mXPs9kbP3yl18C8tfGmRTaGtwEqBTMVqjj+2wBPTj8Pomd/tx019+3+GPAODQl1CnYRL6r5tKGkYC8iY2910A3tDZZr1psnuQXtKwhs1c+yvxifSVWzuZ5S5q48uS0RtMvTJAzrcgwPKWIbypDLPr502ylzWOUgl6bzgp1PszCf3XScX149isjWF2N7x6V+Cjxr3+e/R6Oytal8OcZurhTmn9twBrCWL43Wzi8i4A98II+DzMAyai84ytfo+NqriCTqOWh29UK9ok9FL7UeHG81jx+u3s7iQePpnNeZs8/j5WVP8Um9twijhK9xq56ih4+Mf5tgL6el8yiNO1CTjOBHSenIXL2Jiq74szMcVtjFTLJfRS+1PJ+uE8fCmhuD0J5MlsNvJTJynesJrN6GF1J7/mGIDp4uEMQR8Dlzw1WRzI3b7X5X/6mmAeQqTxC+by48dJQi+Vmpx1v4fn3stmv5Uc8O4sGu6UbPycOdffIo72pUbWfA+hRw33yLQkyUOSPhgdg9bzcxduYXnV14mzdJKEXio1OdccC29fy5co0/H2UaN5QMnGdswLHmPOTSfyY45ceBYbU/0yn2RG75rSmjrdTOoN/DRK0B3bvNp/YuQ4i58jiST0Uqnr7rrTAfByHrLMeiM53D0ZhUe0tFnS8Cyb/Oz17CZtNRsHz0zbA8joER0x6IUlgzuZTeL76VvwmbvZpBXHihInlYReKj05Xz2VOevLeJiTbqhDRuEOef3Cde1sAuLum30mG+Gn5UQBPoy2DKTq8WPhTO3H3YUzXSWhl0pf9NSw4rp70wK/uMv/NMmlMGnKcxb0N3tNNgrg01aBeK/Pd0h24/X5F0jg4XNrn2Njy88VpduvJPRSvVdh/RyELPvY7LctqNM1J93NRZg0bTVgp73uGsCvsMCnLQO0/z0Kfgx68Zdgz1u8G+kPsryKE0SJUhKH3t8KgEOm4tHTtqyFBH1AQv+1VdGGW1nxxgibg5AlGdipGIE/sw5gw3MT+OT5RxP4cV6fT3IJfgBP4Uzeos/wergoRVqS0Ev1XcV1NzDnxp3WmnwSqFMxp1gRmvysyYaX80d1sNHw+lHwyevnIn7nN5tqX0Ls/0Nx9rQloZfqH82ou4oVb/hC3IxKhDoVi4Y7d/47LtxBB6BwJwfAj1u4G17/4XTDma6S0Ev1n4rqfo1QZ1OfQh0Cn5ZDZ65DOLPEAp86wC2VW2G3MJMNEGfrtST0Uv0r56ZsePrX+xTqkJHHpxHj1hcAvm81u37+2eIMfZaEXqp/dbHzVDa65l+sEBNT8tgc4vW9M/L6tCRaWPc0u/v9fnuIqoReqv80pvJsNrpyLRuFGJzW3KchNqe1+GRAp2zoNHM24W/92wifrhJn6pMk9FL9ozG1F7FxNe+yvKUUf1NIYrIRmITe9qLlsVPx+EVJ0rjhs9YEOcIK1zlZ/qpOuybTlYRequ8aV/47llO9le9fpzV1WmYk8EcCfLrTOgVxeRR8Aru3VoJQh6xw/WJWsHaIOHvaktBL9U15NSNYbu12DjzdQCLoaf8MgU/r7MMJfBitv/OlTFgyoFO1YoRLc+D1i9Yj3FlzuShFWpLQS/Ve46unsNyFbfybTny7AIyDD6MbSrS+Phoen+6w3qSZLO9pC1zy+l1hTsd4nP8OXteHYAXMWfNtUaKUJKGX6p3GVBWwvMV7GG36im4K4xYPPq2vC4/PwfcA/OUWuM43OoPcG6NQZxasqK6aOdc5RMn2qxj0HkDvBshpGj21WCmT0H99RE8MHl9zH/+xA/qZyk7AC4tCT6FOzOMD/JGY2FKMn7/CZDPrAe2biSCnazRqzKEvor/RwGauv0yUskdx6H0SeqlUNGXJ8YDazeN3espAMuCjRuBHjcDnk1vaQ4POcqN7Dct/ejIraniD3Q1gi/o4waXP8zi/QYfXv43V9PxL4BJ6qdR0S9lAwOxmE/mW3uSgd7Uo9HxvPGAfh7TRCyrYcK+NH7Ng/fmIyTdyYPu6skM2a5O4IVZXwZxrMvg5kkhCL5Waxi64FGHNnm5Dmp4sHyPD2GqD3VJxJ8sp/ZY4oqXChsEA/llrv04fJ7hktFuTd6L169j0hovFWTpJQi+VmsbWjOCP1qBYPhnYyYy2AtOXPXJqNvFO052mv34a4vEl/AZUOis7hUnSyKKrOzM37sJxJ7FhncMdCb1UahpbcT7gbeT72ZMB3tVoRMhfgtcLa9jYqv3fSCpYexKArWWzACut7BDQfTUnreygE01b62V3fPl8TQm9VIoyBwDmOxCb7+MT2WSgR43i/tyFLSynegZf7UlVd74ykBXWPcLDHOebyUFOx2bCiujLKehId9W/xm57/Zd0GlUzbpbQS6WqAZiUTgXQEQt8TFLjjb67SsCPr30H3r13m8MoFJlZXwxY21kJJqbJYE7VCHpaGp2Bv0Vvm+yOuh1swuobVXf4RtUbkdBLpaGcBcMA9g7+kFXu3QE8hTJkOdWL2biqLJGz9ypcPxWT3Fa+IpMM6FQsCv10WEEd/iJsmvhKy7Gz3t2g0t1Yt5EAdComof+6KpdWc2o/5k8EpmdQ5i7UMQoUsWF/79MOyE4qrLsRMflONgteOhnU+7N46O8C9HesNdmUtebAOVtM+j1YOwDujTkAvU1C/zVVTuWPAP4DLKf2cXj3S0Rq/6qg4ffw+NvZbMTlycDuzjjwZHGe/o51Jpv8mjkQMT55ersLEPfCHNWAfp6EXupAambdJfD4n7DZ7wHohkTAu7Nk0E+S0EsdLqLfuJpZV889Pi1DJoM8mdEkNhre3I7wZqKEXupw0h2vZLHC+pfZnPct8KMhDMEd/zfeCPoCQD+NoIenn/iqObBYQi91OOmu1TZ47hWsBJNbWoOn8KU7myGMQptpAF56eqnDVs5VxyPUKWXFtDW5B/A59AA+HvpJ8PR9hb6GoG96SJRGSuogiZ6cPKP+UVb8lsmK30gdegpvnG/3CXqVPH1Z8F5REimpg6hJmwF+3V9ZYcM+vm0hGfTTBfR3EvRrhKfvPfSKN2La3WG8Dv5RlEJK6iCLHvM3s24SJq0RvsGsK/Tk6Ql87ukBfW89Pd299bWa6gIe2tRkVHekvqdISuqAaMbaUaxwg8EnuF2hLwDwUejT9fQEu3+PqZbvNe2e8E7b/MCDjifCp4qzSkl9xZr+2p9Z4frtMfC7ncimAL07BM++G+FMK73eopQF71FcgXPEmaSkDiFNr7+AzWzYxEroSyS0Tp8M+ndM1QPoywB3V3MBdi9g11pNZX7wXdv84DTl71/YxdGlpA5RFTacA/gt8KN3Y2PQi3X6rtBjckphDHl2gP5e5vxAgaM0YH2XV0rqsND0189GePMaK94ETw+PT9DT3pspgB7hTwx6DvteU/E0E+wb7WWBGWe4mzLFUaSkDjPNeG0Qm752GSsU4JOnn/yqedzcLabD22Iq5e0IZwzTVqavUuY35ajzt58mPikldRirYPUJiOn9A4reMgcUvWMePecDM1NDzO4Od2SWGS9mlOnXn/L3Hf33HQApqUNCD7529JElb44+7v6Pygc9uWul6m0uhWe/7jRfx3dFDikpKSkpKSkpKSkpKSkpKSkpKSkpKSkpKSkpKSkpKSkpKSkpKSkpKSkpKSkpqXTlNL/JTHOA+G8/Qr4a8wh85hv0n91jHqX69Ivtmn6Dzd98Os9yiOnMysgZNk/oTzZX4A/nl9Z3/jnM/WhozY5jbC7dYXO1Ouye4PEi+SuXzRdUbR79Jpvb+IVTtAXJ7gmdZffo1yve0IUi6YBrSIV5cqamZ9kqWh0Z8/UTRXK/i65TdQcu4Kzh+kVy75TpMUocizu2KJqx6PTSz78jkhNEJ1QX7N1s14yNmVrTf1FaxpONg+we4+Psp03T7g5ewzMeYrK5gteq5fSjZMFAtr/xWJHco06vCJ2s+JofRp1stWuhsOIxmvF3h80beh1AFWe7QqeIrFz0ZY4z5u0cgo6hRB3CgRTKkpf9D9NUtOAzF66C0xJCW5RkL0dbeIz1IumA6MyyXQPRuXIVLbxa8TbvwPnC4CKs+CI7Fa+xweZu+oXI2m8aWmN+W9H0VVlLiLVAvkjunVRf6E90IBS4Q3EZPxXJCcIJHx78DJ3QqI92Drun+Xs2j9GQtbQjiL+X84yHmOARhzmq2k14iFAq0KNyj0EHfp7qhHcWt74Bn/03GvkztbzNJKhUX3iYyM6V4dYvRf19gcZfN/QgfHXP5glPGLwCbaEZz8VDjw4+LWtxRxCd9QWR1O9Sylrsdm/ohaxFpulYDG48ehjXvQn13IDXn6n+iKm69RtF9n4TQY82WE31b3MHJork3slWYZ6Awr6TtZQuwLhTJHdS9oqOIwHCW9ZFhqaJZBpzvnFmWcdAx/PmceeXmmmFDgdLlqdvg1c0UvL0dpd+g6N6n6n4W8JZntDVVNkU0p3m2/bdbE/kZ6pmPKr6Wy4Q2bkyXKE/0uOv0fjbyQuK5AOmLz290cXTf3QUtQWFZSKpX0XfxbW7giuzluHc5a3NDm+oILNs1xl0XqonqiOMkOcoZYF+f86OgP6lfvH0JHjpx7P4sKi/LJI6SXWHLlB8oT12b3gvhvahIvmwULrQY0R7gByA3RN4USQlKD6OJg1yNf+ORgVA//HB6PzwtLnJoD/QsmmhsfQjbXAI7Yo7MFIkHzT1K/RZHv0y1U9xr96CCv2+SI4JQ3whVbJdCz53IU18hc5GLGtzB8eisUsyfHq2SI5p0PxdFyE0uN/ua65BAy1BpynFZKvA4Qv/t8jCaBJk9xolmZoxgibGIpnL7g2ehyF8NiahNw+t2fRtSqPQyuZpuhzps1R/2ItzL4V3qcDfOZmuAP9x4XilDb0neA+vWE9wrUjqVo4a8ziK4zPd+niAQOf4XNXCZ9vmBdVBbmOw3bMj9ivfNk0/3+bWnRmuphtEUkyKFvoVXQ88eMKThOnpwqqv+Slc4yKEEA9R+zg0Y3RST+81fo5O66T6EkmdZC/bifoMzlJ9kQWKN1yLOrsv5fjbNAdQeEHOEedYIlJTluKNXIVI4jHE/EsQAnlxvVOz5zVmiLc76SzvZyep3uBtGE3KwWUVPjf5tCe2nYq6fjYZ9LRAoWJiT1+Yt2vhpUp5xGX3GaNoBBJZEvWz6q1HI3x5P2thB2JYY4pI5hrq3PRtimlpSLN79U4ny9AaB6ECtg1+DnGWFrxWJHOhgSaoFW0tPGzS9FY0UBPMpLyovPkiG3mtawY/Tx1K33yG1zhJJHOhgaYOeZHn33TiIxawmd7QLwGBmU1DrGbsRUdthLVT+dTK1mZVC47lHxZKF3p04t8oFJdW7Ebl6jNYD55U8QQmO2o7WlD2PXRtKEcHGrONrlet2tdm8wQXiKzIG5o2eCVdp1EvkmLCdT4y5AW859ZjsfiFzlXfxGhzn4r5CK9DbygE24djN6JhX3IsTIQeZb+bn8OjvyWSYiJQ0DFDPDTRQi34bJgAAlhtiitQ1HX06iqlPGDHcQ3Hgr10DaNF8n5F4Z7iDpbTD0GIMgdwHSYvhz+yxVEW/K3IypXlbspEB3+FOhddOzpnkI+i3tCbOP9m1Hcn6OEoj4cjXebAHEOtpMcZGtsofxZCcXSS5T22uQqPnP1PFMStLxlWU3OESGYUzqBwe3Fgw+5t7DQKWPGc8QHvEJ7g1SKZ0fIlCtjoWNBOT+KaaffsOosuRtUCZ6Onj4yf9KKQV/LQStM3dl3yogkbXxnSjHUniVgZ5zlX0YL30vloFWmwFhlEIwdgsMISzXjb9oR+Aj8AlC70tPqCyfqjvBIRp+O4q+C9J9r8OxOWZB3+8G9R0U+RB6KOCOjDgNuNcz3pqGgrs3uackVW8thTuZfSjH+LpJgA+/18JHXr/xBJaI/gtY4aNLo/0kqNbKvQHTSKAJiH6HoIIjioztC79GJrlDI6jVKYeF+sVLTtpc+hI05T/MaZfIR16Xnwuq2OGgJZTxiB4mX3hy/Cde2Dc9yr+Lpf8OgqcPA3Drgvspna3eFtsVltqLt4p9OMrQ7vl48fxHvVvM29oXWZ7sAF9B6cwq8B/+uO6g5TXQDoNT1PZOfHp/z0vr2s6ef0wCuw/BPVG95ohan6TJE1UfzAVbv3oJc14sSKSEa6MZV6DS2PiaSYBPRbrIN/CT2dlHozCtcWf6xk4tBz76NvSIRen8BhQCNGoef3CpKIQEdZIzheC4USIjl96EkAH/nvUPxtn1OHpJUKVOoXgLoY15OwXj+ozLg8GtNnP7L5SJHcSXjvVsv7GAnzJtTTX6ylRn25SKL2eI47E1fwMZEUEzqHz6qzLtB79CLrHPoakUTX8k2Ue/FgODR0nlKRGpPiabrHchb6mmF0D6YbAcArAC6dM5wsBE4mpcw4E2XSufNzBf4gkrkogkDY0mA5TAtMcl54vZucrM0T+h+eUYg4AlPbaLSIQs+dq2aE1IqWVtWt/5hnFMrUGi/J4nmNelqIEcmdxWfersAGqjQU9CaeiDiOKpYqBYUYw9Pi1B30QwEvPvch7yzwRjQR7u6Rc8iXJvSWVK8xBKCNAeAP49x+5F2MY7WiQvbh/4tEtt5BL2RzbXcgPpyM460hLyOuc+VZXcKwTHfkCgH9J2ejHkVyJ6UDvaM0cBwa61O1cg9ANX7PM8UJ4UlOspg+GfQOH8XC+na1CuGaZ1esjaJyIFxEh96HjtGSDe8vkhNE5VB8YT7vU91NPxDJPQrXdYOjhsKR4Cd0TSI5Jow6c632ta6buOOeHGEM67ogYM0prImsgF7x6pdSGIrwaZu9LHgewuMh3ObtHIIo4beqNc/aNtilO/gxkomGWathjWr6PwuTU3woqPhbdZuvNeEuWHfQk1DAywDbR9QINOOHd/gYE635KNyvRRYuHD8t6KmRaWKtlLeGeU/2YDTR9M/xd4fqDXXgb3t/QR8TPCDClnE4p84r3W3MFu9wZbpDV0Wh727JEu+lDr27bTC8YABw43qC5/JMcUKomXT1Jhn0+LyC41DotFfxBhLu1GY+hTDHozcD5n1dvWu87N7m85BvN8IGquPLRHKPwjEn8dDDE3zttL8mOgPFHRovPP1q+j/TE7xVQP1C110CtGSJdrduTsWgN4bzsNIbpmO0I53eo9cdqBs+h6CRIKOsKbZwkiA0yM94z/Hon55f+vl3FG/TdbxyPXot3k4IK3qCnkTvI1y6A+89b/eG9SwcSy1HjOoKxiZCPUFPFxeF/hSx9kzw8Yb1t+jk8WiuQHdQB2G+AI/SaFVAP0MvhMZ7nDcS5hjxq1h9hZ7mKJ2hNyzoESIqvsQfUkgHeqW8xY667UDddHIGUTncO+lcBH07bWsQyQmiusNxPyXoVFdwjkjuUQhzJ1rtF1xDkYRIjgkdMZ/XpztoQa8ZUyynQhP6/UOvasbN1LZ2LQQWgk9izvAEJvNPcqPXWvhxmtyrleHuH2xLSzxo2DpH9Z4OFZMOeOanKJ5VPY0JoQ1pf9DHy+ZqHIpGquJ5NR0zcSs2VtyBqzj0Hr0hmhYVGnFSFPqMB7fy30iiWJenafp0nkmIlglx8btxDvKOBwR6Gnl4fK8Z79BNOZHMMspCVxP0SP+ouzuydpc1N8K1vCSSYsK1PxgPPYVISPtErdqTEAuT0glvsl1fnALoP7dWXRJ/XA0h7YUIW2hVKEL7jERyUuG48y0HZXxIbS+SuxXyX083+gD1p13blsQ7O01aPcFl1v/6n9UqlNMd/CDZPikcr1N4Q/NQCgHRGbb16U44KrtILAcuwusvEJMHaIVEvN1J6UBPogmmWFYKRtf1MQG5mCY6uKAdtATKM0L0Q2DwqC8JUNZaa64U1wVfpfLhWJ1uRaMi/kIrGjjO3r5AT2FcRtx9hDhhfqMv4p4JlR8//GZ6o54+uKO7tWGHxxjFl+xoOTEOVBFzv0fXhL+88UlU/3xN3K2XiaSYUC81oo32Cz1NTlF/C2hlDu+7RHJMNnfgAcvpGKvjV+2SieJmTGZD/Bzu4NO0DUW8lVTUiVAnTY5qeqR45w5H91vgYDcRxAhT+E4AmlNQOKJUtmJe1tQphKIVJ3T2pviJ7ND5W0/EtX7GV588emylLG05yiI/UrRwM4U5/O6bx6gUbyVIQP8hByHuorIf6TgSw8tcDK3DCSCadNrLm89FYX3UQdDwb9gqrGVFGn5RgTtoiRDneoxGBL7649FXODCpobVanKMuut8H6W7LKwY/UN2BK2jWjjDgMYRR+wAegMdQHg99mT5MrcCEUDP0lKDXgtcq3mYKnarwmdEA/RK62YOyLyTPy+cnXSpY3ETbQ3WmevV8WqK1PbXzhzhf7OYLLdfSnAOdnryqEyHKWTS/wet68m6iMbmnJyla4FdqOa6pcs8+msPQioni2nEOwjuXWtEmymGs7AK9WLIMrhNJXFQfij+8m9cl5iNUx3Q8fP521NketarNtHmNhBElmVR3cKxa3tIuzrMF9eREWa/kqzuaPh5h7HzFExgusnNvztvcG/oc13EdwZsF54dzVwsHsjk+/KDlYt7ZvcYH+MxVvC4x2mGy+i6vJ9ruEXe/CMfh8wC0WTOcwBRaMUK5FAp3VX8k39HDPCUmukmBYeMV6s18LRhDjngrQd3uskRDAM63qTB8joCJFG36ooaF191GlSRycuHCC2gE4Gvj8Mpq5V4672Zc6JP0Gu+/EZ3Iqu7wD3CBH1JebtQxNaPdpoUeQPz2PuW3uXf9hh8YynTpf6bOgzzNKUHvDv4Q59vOrx/HpjKTiWVLxL36QwlLYDTRRejG81N5/C1W47gsj0QiOFUt+CitAvEOjjz85gvmMqjDUsvb6itEdi6cayKgbKWyKACdD+UIoZD/KSoT8r8YDz3tmCWHAOeRsMsSHWyUUt7KnQuvY4xMtBCAtBCgmiyypSSHO3QNPreJrpVvPCOL1hON+m5jlsjK79oDwlLqqFlUN74Iv25e/oq2DV2XGmllDDH9slhdYqIqHN9KVQutpA5h8zROEtmtWN9l3GP3R/aINiJeIuTo6Hx091pk7Vm0jGX3Rm5Fg+RkYAgRyQmi2BMeDJOJ8O1dV3do5QfeJBfe6xGAVEVDK7zNlIz5OxK2K5BU184/2DTjcXjMcrsvMnVIaejk77lCiEfDU6jjxe9poWFT8TcX2zzBCniEe2hkoHTVow+zecOT4sMkugmDiphEd2qHOk2+lWE/GsAn4OUt12GOcD/dTcQ1zFN8obvU0l2dGiheNFGz+5tvQePA0wUr0QkfJu8u3uYiQHGsG3CN8wCCV/FHxqPRjqENWmply+20vUJkjUlxbfup3RemclTimotOLw3Y6M411RE6wJXxW5lV964f28sjU+nGlkjqJKveeH16UA4fgJqWOW8b3yaermxPfHJClq/takwm/0LHQpjkxmhxHxzceJpfiWwx4Rp/hbaaizarhD2V5WsZgTpI+h0F2nKCEeNGzgzKinKOsNKMn1M9xW9jiQrHOhe8FeD8HtRLBRzGA2iLUUMqQieLLFJSUlJSUlJS/1li7P8Bd6INxXbsQxYAAAAASUVORK5CYII=;" parent="1" vertex="1">
                    <mxGeometry x="40" y="360" width="142.65" height="80" as="geometry"/>
                </mxCell>
                <mxCell id="8" value="" style="shape=image;verticalLabelPosition=bottom;labelBackgroundColor=default;verticalAlign=top;aspect=fixed;imageAspect=0;image=data:image/png,iVBORw0KGgoAAAANSUhEUgAAAIAAAABgCAYAAADVenpJAAAAAXNSR0IArs4c6QAAAARnQU1BAACxjwv8YQUAAAAJcEhZcwAAFxEAABcRAcom8z8AABlWSURBVHhe7V0HeFRV2vZ/VggQSihJCOltJpkkJBAhIZRQQ5MapBMChN5rIk0siF1RRAERFYUVFWQFRRZdWMG1SxMUBHXXtuoWd9XVbe9/3m/uTSYzd5KZZCaJm3ue530mM3Pn3pP7vec7XzvnXtG4+BRM1F9c0WjFKZjwIYpPo1HJWQRcex4BKz9AwKoP0XD1pVLwvXxeck4de8b4HDUIkwC+ghJmw5UX0FAJvtGyt9F0zgsIKnwMLUfdjpDh69B2+FqEqteW+behxdRdCJz/G/W70/KbgJL3XM9XQzAJUG2cto/o4rNoXrQHba9egbjO/WFNy0SSLRVJlgTYEmKQkhgNW2KMvE9KSYMlvTOie4xBq7H3otGS14UIPJfxNfwHkwDVgTbqA2c+h4jehbDaUpCSEAWbJR42ayJsSRYFK5KTk0rB9zar+tyaoEgRq0gRi9isQQia/KidBDU8LZgEqCoo/GvfR8vxm5GoRntKQqQIPTk52Uskqd9GIynZhuBRtyoSfFCjJDAJUCXY5+5W4zYhKUkJ0BJnIFjvQK2RbElEm9F31+h0YBKgCuAobTZjHyypHZQar77wddis8bCmpKPZ9L0aCYyv70uYBPAWSj0HLD+JqO5jlPCjDAVZHfCc0ercAdq1DPvgQ5gE8BINV15Ey4KHkWxVxpwy8oyEWC3wnMpIDFLXaLjqomEffAmTAN6Ahl/xe4joMw2p8ZHGAvQBUpVByWvQtfS3FjAJ4AUY3Quc/zIS07PFjTMSni9Ab4KeReC8l+SaRn3xFUwCeAEafy0Kd4qxZvfrjQVYbSjPggRrOXGLXNOoL76CSQAvEKD8/pCRNymXjZa/9wSgy2ixWGBV9oPR92VQBEiMRdjARX73BkwCeIzToo7D+s8X4ejCojAJCre8EMsjJiZGwL/j4uIQFRVV4W8YHIruPhoNS9QUwASTYZ+qD5MAHoMEOIeo3HESwqWQKMjExEQRJIXL0e0sSH4XHR2NoUOHYseOHTh06BAef/xxTJw4UX7jThvwGvGd+qHxouNo5MdkkUkAT6FGIVO4sV2HKeHYR/PgwYNx+PBhnD9/HrfddpsIm4RwFCRH+rRp0/CnP/0Jju2HH37ADTfcIOcx0gSMDCZ27IZmcw/71RA0CeApdALkDENCVBi6deuGCxcuaOK0t02bNpUTaGxsLHr16oUvv/xSO6J8+/HHHzFhwgTREC4ESEqERXkCzWbslWyjYZ98AJMAnkIjQEyXoYgND8Edd9yhibGsfffddxg+fHjp/E4y3Hfffdq3wD//+U+cOXNGBK+3F198EfHx8S5agFlDiyURzSY9LEUkhn3yAUwCeAqNAFHZQ2QKeP3110WA7733Hvbv3y/CZbvrrruEAJwKbDabCJztp59+QklJidgJxcXF8p6NU0OfPn2EBI4ESFYEYO1A0KTtaGgSoA5AI0Bk58HomGrFN998I0LniA8NDcWuXbtEoM8//7wYdjQQr7rqKnz11Vfy+a9//Wshho6jR4/K5//4xz9QUFDgOg0ojUB3s/WkrSYB6gYUAZQxFp6TLwT4y1/+IsJNSUlBSEgIZs6cKQI9duyYCDg4OFi+++Mf/yifc8po27ataIV27dph8+bN8jk1QWFhofymHAFYJ6A0TeuJD0gtoXGfqg+TAB7DToCwXlMl/0/VTvWdlpYmo3fEiBF45plncO2112L69Omlr9dffz12796NOXPmiJBJgLCwMDzwwANCANoN+fn5Yi+UJwBjAVFoPWGzSYC6ATsBQvPmIy4yDFu2bBUBjhs3TkZ7VlYWtm7dikuXLpXO73T1+P6JJ57AyJEjERkZKaDB9+abb8oxtCFSU1MNYgj2SqE2E0wNUEdAAryPtsOvQ6wiwMCBA/H999/L3J+Tk4M33nhD1D1JoKt9Cvehhx4SItBmoEfQo0cP0Rb8jjbE+vXrRTO4xgLs4eDWEx9UNoBJgDoAOwFC89dLkCY6OgpTpkzBhg0bcPLkSRE4Rz6nhX//+9/yngLm+3/961/ynu1vf/ubGIq0CdasWSNTSEKCQWZRjMB4tJq0zTQC6wZ0AtwMazzDvolYsWIFvv76a0203re3334bU6dOFY/BkABWRYCCh0wC1A3YCRA8dI0iQHSpEVfVdvz4cfznP/8RDdG/f39DEtAGaC02wGWD/vgGJgE8ht0IbNOzCD27ZuHjjz/Gs88+Wy6q50njtPDUU09h586dpVPFjBkzxDh0JYByJ0fe5NeUsEkATyGBoPOIyB6OzLQkIcCRI0fw8MMPSzDHk8bfbNmyBXv37i0VPr2Ezp07G9oBjANE9Jvp19IwkwCeginZxa8hLrO3uIELFy6U0U93btu2bbh48aII1KgxGfTcc8/h0UcfLQ0NszGQtHbtWkksGRHAZklAfMdcua6/1g+aBPAQAUoNNy96GpbUDInRM3BDEnz66afi9lGl/+pXv8I777yD999/X9w8uobME/C7d999F//973810QO//e1vJVjEyOGDDz6I8PBwVwJwWVmSBS0n+s8TMAngISiA4PwNYpgx1s+I3r333it1APv27ROhMj3Mkf7yyy9Llu/gwYO4fPmyfMdGN5Hqn3UAt99+O86ePSufM7HEYJBzLQHB60X1GK9NAwoGfasOTAJ4At745ScR3W2UzMtU1126dMEf/vAHmf/vvPNOIQOtenftd7/7HVavXi3ThXMdAacSBpZYP+BMAGYF6RL6a52ASQAPQPXfbNoeWJNTRC1T/Q8aNKg0BkDB0xjkyH711Vfx+eefS8CH0wNHN1PEN910E86dOyfHG7Wbb77Z0BMgZAVx9iA0Xvqm8kTOGfaxqjAJUBm4GITWf+9pSh3bEzYREREoKirSRFfWGNhhuJfCZIiXr6wSos/vOP8bNWoITgFGNYI2pQG4v0DokGvtLqEPPQKTAJWAarfFlCdk+TbLtBizZ/bv7rvv1kTn2r799luZHqgFPG38DXMErmlhjQRWdW3VB/s+Ar6bCkwCVABRt8veQUyOvRCUguAIJTiqfd1IKj1b6EwAgpXCCZm5aDLviExLRn32FiYB3IGqX93k0KGrlT+ujDNNKAzZ9u3bF3/96181sfmu0XVs3769oTegg1MBVw83Wvq2T+wBkwBuQLev1fgH5KZT9esCYDXPddddp4nM981dWLgMrBOIklVDzE1wRzKj/nsKkwAG4BzbbOZ+WNpfVW73DxZtEC+99JImLt83Bo7oZRgZgzpkWbolHm3yb7G7hsVVXzlkEsAJTPg0XvQqYrMGShDG8cZTMFdffbUUgvirsXAkLy+vXImYoWdgTYA1pb0YqNWJD5gEcETxWVn/3y5vjqhZqlvHm07VfM8992ii8l9j3EA3BllY6q5oJMUSg/jMnmgy/zeKuFw8ctL1f6oEJgEcwJHEffuStS3eHOv0KIAOHTpUmPTxVWP4ODMzUwxOCn/dunUYMmSI4QoiEjWi9xQEMDZQhVCxSQANXH7VdM4hJGZ0USMrXtQuw70UAEcikzVLliypNKDjq7Zq1SoxOLlgZNiwYZJJ7Nmzp2u4WBGV6wfaXHOHNhV4Zw+YBFBgooUjKKpXgYyoREsiOnXqJNk6Xf2SBMzc1VRjVlG/NoNDY8aMkQLT9PR0l+lAFpKmZ6Hp3BcVkZVnYPA/uoNJAAVa/a3GbBTDips/UdVy+RYXe1ANUwDjx48vV9xZE43pZt0l5Cv7xOyjUdJIpoI+09CQdQNehIrrPQFo9QcuOIqEDt2V6o8VlctAD8u79dFGi5zuWU03agE9TazbI9xbwHBFMV3DJKu2ltBzr6B+E0D5z9yDp93g5aVWP4XNkm2Oft5kguv/vInr+7Jx1DP5RCHrmoj1B0aLSRiujs0ZKruVe7qpRL0mAA2/ZjOehTU1XZItFD7TvEztcv7lyCMBOOpqqzE8nJGRIX2hHcIpiUvQli5d6hoxVBpA1hKMu09pAc8qiOoxAdToLzmH8L4z1OiPlpvLuZV+/uLFi2XU6XH/P//5z5o4aqctW7ZM+sMqJBJy1qxZstqY7420AJNXzBV4EiautwSQ0T/9GVhtaTL6E9QIy83Nlbo+rvPj3M+bfv/992tiqL32yiuvCEGpBYiOHTtK7QGnA1dbwF5HGFSwQ/5Ho//dEfWUAPYa/7C8ObCpuZ8+P/38lStXSskW51qOfsYBPvroI00MtddYMjZ27FjpF/tKTfXkk0+KW8hpi+RwJIGUk/eeKtvZNyo2+v/LUC8JQOE3nHEQUZZUJCXGSQqWIdcXXnhBjD+u4+ea/0WLFmkiqP32yCOPlAqby8tZfsbqYxLCOVfAJWWJGdkI9GCDqXpJgCuWnkfStPuwtmSpurE7xOjjKt8PPvgAjz32mGgCulos06orjZqIqp9TAKemuXPn4osvvkD37t1dAkNCAq4s9sAYrHcE+L8lJ9Fl0yXsPngUt66/XsKsvIkMsxJc788IIGv7uG6vrjQGoaidKHxOBdxnkOsRJk+e7GoHKNCwbdd/vn1BSQXp4npFgF8sPYWEWy7isYMnMHxgX5n3OdfrxhVHEudX3mTG4WfPnu312j9/Ni5IZZ/ZP64q5r4D1AQkhDMB6A7GZw9E42VvKRK49wbqFQGuWHwSA7Z/iptvuxOxUeEuxpMjSAaSg+5WXWmsQ2R8gjuScGk6G7eecYkHKNCzsaZ1RJP5Lys7wH3pmAMBlJqgqqgIjpkmo++d4c25CW+P9xJXLD6FPg99hpvvvA/WhNgKCUDQGOSyrrrSGI+gZ9K8eXPxANg4BRhqAOUKWm2paDZltyKA+wSRRoCTMlfQbaDV6BYSXjwpN5MrZQ2PcYA9KaHOzWybwfflUFLGUo/6UgX83wplNd92CVt37UeyMpIq0wB8feutt+RG15XGxahPP/20LCxleJr2C6crl/+F8QD1KjuMVBAPEALIxgdj70Fkv+mIGDDPGHkz0WbsRnWyCwhceAxhV69ARP/ZxscOmCuvzWc+K5sbNCvchfB+yoBxOU5D3iyEDVslHeKzcvj4tMi8GcbHVgPtBixAtDrvrj370K9vH1Hx5W6aBt5MvfiT6/xoFLIowwj0GOhF1ETj2gEuMf/ss89kdzF9rwGWqdEQLLfZpBAgyb7JVGUE4CZEUb0nIS2ypSRFjJAa0wYRvSajwZpP0HTWQXm6VWpcW+Nj48PltfX4zWhw/RdoNexG2KLbIDUhwuVYIjU2BJaMLNEsDZX6j8kZjrSY1obHVg+RiIsIwerVq3DPxo1iUDn70HxPI2v06NFS+8fEUOPGjeVYIwQFBckOYP5u3FiSO4mwTiE7O1v+ZtEIl5uzjpABLG5MWeoReEuAyL5FSKngOTh87Cnj5g3WfIyms1+Qyhl3j02RZc3qtdXErWiw7nO0HHkLkhJiYHOqsdPBipaEq3qVEiCqx1ipfzc6trqgtc807549e7BgwQIRIj/jqOcI4nxKw4rr+9hIAAZejM5F8IZPmjRJjvVXozs6YMAAsUnYR4LeCvvKftMTOH36tKw91LUBCZCk+teyYHuFIWGNAB8q9V8xARhe/F8gAMGbx128mVblok0GWJhU4UYNFDiDQvo+fnWBABz97J9z4ofgZyQxo5nsN0nAregS4mIkz9G06Bmxf5wFr6NMA1RCgPIa4PmfNQEIhlW5NQuXdvPGMdTK+Dq3bmOunSlXttomwC9/+Uu7QA2ifY6gPcP/iXsScBvaiHahUibWeNEJzXj3KQE81ACT6i4BCN5UqlNa0nz4A+dWqlV+zgdBsNUmAZiaZt+4H6HR6HcG4wFMZXN6iwkPQUSPcZU+gLJqBJjzv0EAgnMobQASgTeZRiAJQM3AxpAw516j3xL+IgBTwCwEOXHihKj1ytYMEtQAXFTCPEZEcAsE5y1Eg5Uf1rwGKPNB6z4BjKBn2OjmsTBTjCqD4wh/EIDuHR8zw0IQNrp8rFQyCvjo4HcMEs2bN08wKn8EbBmdENR/mexu4q44xGMjsK5NAXwGvzx/3+IG8l2c6otddXL0UFiegMeSAEa5dmfweF8T4JNPPhF3j0UfeuP2coxNOE8F1Fw0AjnyX3vtNe1o4MeffsLRI4fRp3sWWuQtlVhPuUhueQJUrgGq5AX4iQA8f0xmL4T2nIK2uZPLo4dCz0KE9pmJkD6zEZY1AuExieiQ0V7mRwZ1+OSOisDKIE4DFH5tEIBVSRQoAz96Y0yC7h7tERJBj0NwmmA8gKlho/biwf2IT8lAk5kHDL2BnyEB7E/SCB66Cleu/RQNVl1WuFSG1ZdlS5em0/fKtq5xXa5WvvEQHDtmf0KHJ42FISQAtYBxH8rgDwJwBzGmfp03nfr73/+O7du3ywql5cuXy4YS+kbV7tpPP/6Ia4YNQpMBq+TeuCeAPwJB/iKAui7Xw7UoehJBU59QeBxBUxSm7lKvO6Wfibb2aJ+UgHmzimTrttOnz8i+fZWBsX+q0lGjRolwjftQBn8QgEWfjE/4qt2ybiVadxmn7q2yA5w8Av8SoAbiAIx2yWuS9pm6Ntf0c5fNNOXPcy5loIe+Pcu+KgPnWKpfPuTRE8vbHwRgaNmXq5APHXgWkRm5aLTwuJoGyqeG/TsF+JUA6lzqOnIth1fdAyE4f1Og3kAPEP3+978XVWuUa3eEPwjAp4xWdzdyx/bJxx+hfXo6mhQ+6RIW1gjw8/MC/AVa1SwLZ7kVawSZN6hIC/iaANxNlLuFMZjjq8ZzTisYj8ZdpysCsEawzBvwyxSgj8KfMwGYdmWjsUVr2+hYwtcE4MbS3AvA15VIhw8dRJw1BU0mlN9xtEwD1JNsYGXQCaDv8UtLuyYjgdw+nkEfRgB92birwcbbN6CdtQOazDmkxQW8sAHq2xSgE6CmcwH0RPr16+eXnUg4FcwrKkCrq4YhYDmrwM56rgHKG4E//2ygO9Q2AbgugesR9QdK+Lp9dOlDdOnUEU1HbwILReqkERjd/RqpKmJlq1dQ59eTOe5QmVtX2wTgaiS94tdf7ZYb1iCoU77Uano8BdRkJDCidyGSbSmwtu/kBTrby9SUL8+0rhGYLGFcgKtq3YV4a5MAVNEsSjlw4ID2iX/agX1PoaUlS9kAJ6tiA3ziJQG+8JwAzFoVn0GTRSfQdMFvFI56hoXHELj4BIIyBmPtyhXiwrkDq2tYO0dtYNSXqhCAD3+ubqPKZyEH8/96OZo/GsPLS+ZMQ1DOJEkTlxGgUhsgGu3yZuMXN3wt+9IlZuRUSoCWhY/iF+u/RdCouxQBoj0mQIPic7iy5H00KDnvEa5Uvu2V819BbEY3HD96RPtXjRsf1uDuIU1ETWsA7jrGrB9XIXHBx/z587VvfN++/OJzrF6+AJEpnRA48zlFgPOeE4DCjssaiODRtyNs8DJY0zooQbupUtHUa0Tf6Qgecxcicici2ZLgwRRwRh6K0GZQMUJ7FCCk17Qy9NRg8D6413SEZY9AeoeOWLx4IW688UbJ5bOsm9BLuPk5bzBDvO4SPd4SgDYFRy0fEu18TefrO7/nCl8WpnJPQEYcWavIIBCfM8Dv+YSRW2+9tdrL077++is8tn0L+vfugeCMfmhStK80IujxFJDM/fKVoZUSz9JuZaFXkiYlmK9PoTGnBMzfGx1D6ASgW9JEqfJE9XdaXJjYHZ4gla+8huoTRyTLut2B31eU4vWWAPouHUbX8gQs5NANU56Lmkn/jkvUSVbHtLA37Rsl+G2b78Wgfr0QZstG4OB1aLTkjXLhYC8I4D+UJ8CriM8aoJHG+Hh/wlsC+BPsCx9M7e0GVVw0unPHNvTvk4u2KTkIHLQWjRa8oty+CzLv68I3CWCAnzsBTr37DiaOHoF2VuXrD1yDRouOK/ledMkC6tAIUHkcwJ9wJUB/kwAK3hJg/96nkNkhAy2yJ6Dx3CMVCl6Hx0agP2FqAGN4Q4Cndj8BS5INTYfcqO7juQpXAzmijhLA1ACEpwR46fAhpKWmoOmwDaLNeR+dBe0O5hTgBJ0A+u5gdZ0Ah58/gMz0VDQbUCJGnrdbxmsEuIyo3pORFhMi7lRNg3H/xA5dNQLQDeytPmunvlNuZI1CETE2ClmdO+Gzzz6VG7xx40aHdDDrES1ynPHvfYE4iZfQVaUryGcUGBHghx++x5ZN9yAlJRXNB62WTS+9Gfk6hAB8BFno8OsQkzUI0V3zFUZqrxXBk2Mc4f74mC5DEd53uhYIegMhAxYjrOsYhPWYWGNo22MSIrqNQXx6NlJTbJg5ZQLuv+sWFI6/BnGRXAYfDUZDk1LTEZkzUh1fYHie6oAl7ZE5I2CJj0Vu12xZlOL8fMLvv/8ORw4dxOSx+QhPykTg6E0iv6oInxACCBiGXf5u7ULrS8Dy2kPg/JfRctz9aJ47G21yxiFCCTu6+2hE9i5E2yElaF60BwHL3kXAitOGv68WVpxR534HbYZdh9QOWZg9tQCPbHsAT+/eiScf34E7NtyI/CEDkZCaiRa5s+yWvqh91wUfnqKMAGr02R+cUDvg9R37UlugBd1w1QU0UHZRAwpk6Vuy+zb7KAYWK2n0/voB+vY4gbMOonn/FWiVnofQtJ5ok5qLZpnD0XToejSa9bysfaho2benuKJx8SmYcIK6MXwVoVC1CtT05PCd30DBqBHNJ38I1LVLNY7m3slTQdQx1e/LKfw/Rh3Y8nkJF1oAAAAASUVORK5CYII=;" parent="1" vertex="1">
                    <mxGeometry x="270" y="90" width="106.67" height="80" as="geometry"/>
                </mxCell>
                <mxCell id="126" value="" style="shape=image;verticalLabelPosition=bottom;labelBackgroundColor=default;verticalAlign=top;aspect=fixed;imageAspect=0;image=data:image/png,iVBORw0KGgoAAAANSUhEUgAAAPAAAAA2CAYAAAD55BQ7AAAAAXNSR0IArs4c6QAAAARnQU1BAACxjwv8YQUAAAAJcEhZcwAAFxEAABcRAcom8z8AABgYSURBVHhe7V0JnBTF9V7wRCEEZdmd7p6Z3WUlilc8OVTwCHIfCogxggeoaERUNB6oxBglYlBjEP9qoggiihfBIxJBxAMRFRVQREENoHvfu7P31P97Va93Z2d67lmyM/T3+73f9PSrenV+/aqqq7vTCsZ1qykY9wuRSlI+/hcif2y3jcXjuh6VZsNGKsMmsA0bSQybwDZsJDFsAicHNE073OVy5Tgcjp58yoYNm8AdHVlZWW6nU78d8qxh6KsMw/gtq2zY6GAEHnMopKu1LgpJJQI7nc6xLpch3G6ncDq1esPQrmGVDRvtTOCx3UTB6ENE/siDRP7wA0T+sP3wu78iakuYrur8kDR1DMnDMZ2j/23sRSipRGBd10fA+1YTiUHgCsh0Vtmw0Q4EBmnzRx0s8od2klJ4oUOUzDhFlN4+TJTdfZ4o/9N4UXTZETKsDAcyl80ZI2peflDUvvs8ZJmofuVhUXbXGGUL5C8Y171tGmHEJrCNfQYJIzCRbcSBUoqvOVFUPn6jqF29WNRvWi0ad3wumn7aIZqKdomGLe+L4iuPkZ64cFKmqH7xAdFU8F/hDzpHusKLDGnTMs0gEiuBMb/UIdeCNPMhDxiG46KMjIxDWR03HA7HIbA7WdP0+zVNe5DSys7OzmC1JWwC2wiJuAkM4haQl4QnJS/reXuRaPx+s/DWVjMV26L6hXmIQ3G7i+rl9wvR3MQaCzQ1iuplc0XhxHR46y6BaQeRWAnscjlOcjqNL10upyDB8cu5uZnprI4btJIMeZ3IyPa/yM42jmW1JWwC71243e6DXS59JNppNur+VdT9razqmIiLwDSXxTC4+KrjhOetf4qmwt3MPGt4PVVyOE1D69I/nC28NRWsCQ6KUzp7hJo708XCKh9+Eh+BNRCYCEaEaS8C62xf/zw7Wz+O1ZawCbx34UInwEBsvWFo9VlZLoHfFazqmIiZwNIjdhcV86aIxl1fM91Co+Hr9aJoslsubFUvf4DPhkf1838RhRMOl/Es8+IncRD4RCKVD4FfTDSBQciVPgT+zPbAHQtoIyfqfAe1Ea/8L2VVx0RMBIbXLQChqhb/UXiry5lmgfDW12Leuwfz4LeF5z9Pi/KHpomC8YdJMtZ/tJJDhUftuhdB/CyRPxLpWuXHT2wC24gVqG8D8jXqPEUJPApeEASsfuEvQoCgVmguLxS1774gyu4+XxRd2lsuVhVe0EsUnN9DelE6rlv/Lw4dHrXrXpCe2yawTeD2RmoTmDZZjO0qqp6eLbx1HqZXK2jhqm7dclFyw+kc/lB5q0gOt2n4S/Fp3gwiVz8/l2OFR/VzfxaF40F+suWfJwuxCWwjVqQ2gUd3EeXzLsawuYyp1QoaKlc8ep0KJwkLoo61WHSic7BTOmuQ8FaWcuzg8FZXiNJbh6iNHUR+En+bfmIT2EasSF0Cg5CFl+SI+i3vMbVa0ZS3U5TdM9Fnl1WY1eIx8MbwwlVLMIduqGMrgSBd9ZI5ct5cMOJAUXbfhaJoSk5YEtsEthErLAi8mFUdExETGKQpnv5rUbng96J6+TxR9+EK0fTzTtFcvEeUz70IHjLy2zxS4KXp/m710ntE00/fMWVb0bjnW+gwdL7QIfLOThOlN54BL79bVC0GoWmLZQgS7ysE5o0hxxmGMQxyEcJdBf3VhqFd5nQ6xiK9AXRbhIPHgv1hV0c6Lthy5uTkdOfzUYPympWV6SZbZBPShVURAeXogTz0QXn7wcYQKh9sXIjyXkLlpfIbhuM8hDkHx8fEugEH9v0J/CrVIZ8PKlQuruv9laVWUF4oDNUh1UFubu5BrIoaKNthZnvgWI+MwCAL7WXO+02ayBushLY40saN8nmT1fw2GvKagqE0xS295TfyVpFnzbOids1SucGj9JZzpNfPR5pFVx0r6je/K4ndlPe9KJp6lBqmW9mEpDCByyCXogF74ncSzi2EbjPasYk6m69QGgizB3rajDATnehoNhkx3O70TI7/b9h6Ax1mKquihsulnYP8riJbINyLqIuBrLIEd/p+CAuS6rfh9xmU8wPk478gah2Vz7rMejVkE9L7P5crc6Lb7f4lm4wIRDSIJDDVOdL9CemuoPKHFiqX8QwRi021APaGc7g3kcdVWVn68ayKGijXzZQW23s5LIHVQwXdRMn1A+QwueyeCTg+DaTuKj1j/tDOlvEiFtimrZLy4nAu7Z/uLI/ltky6SNx0lqj/cq0kr4TXKyofn6UuGEEedkhVAqMzVcLzLCMC4FyD6rQqryRutxL/c/Sr69rH6PjTQP5D2HRYOJ3O3kiHySHr42+sihrI8+W0MYJsgRCNKNcEVlkC+v5Ie7tv+tEIlRsdvB6kWgxbERMGYVsITKJstb1QWAmVDelVIL1j2FQL0O6/N/NEYdGG57IqaqANXiIbZI/yF4LAIBbmtCUz+wvPG0+Ihh2bRHNZIaRANO78QnjefFKUzBoMoh0Qm/e1EknKVluUfuWjM+T9ZF80fPWhKJjQU3l+3/gsqeuB9WZqNLMBVWeQHW07CLIGxPiXEmMt/u8gHcfjX60Wxw9QPth8SGBImAM7taYNisuqqIG4U8x8I4/U0c9jlSWQxzE+6XL+Zdxi/N+GsmxA3t6BrMI58uzrIF/juOXCRvGINAizAaPOk9h0SPgTGPbqcfErgY2yUIK8VSHs1uxsrQ+bagHsYWpDZVDloNEIq6IG7Cz1qZeaoAQmz0urv407P2faBKJhx+eibPYwHs4miMS+MuYQuYGj4dvPOEUFb2WxKJlxqtRbXTxSmMDcAeTx9+gw8+FVf+t2awPIW9IcDL+aYRi58LSnQTcVYV7DKd+4zRSvb9++XTmJoPhfEhjlHmnmGXloxPErODfZMDKH4Rfe2Xk0lRlD7Sx66QHqVs6PIeNh+28IX6zKa9qQFzadzQcF4rcQmL34WvwfDhkRShBuNNI6u2/f9IB6hX7vEpiGr0XTjhJ1m1YzZYKjcdsGUXRJ75CLSrELRgFDOwnP649j5NzMKYLA9R5RueBaOYy3GkanKoEpHkhZiv/3ozOeOnhw4IKJP6jTggA3QSiemW4t7MzgIEHRgQhchbq7jFVhgYvTgYg/EelsN/OOuqvH0HUmBwkKxPMhMA33HYtYFTNgb28SGKQZkiaHrqKpgSkTAk2N8tFB6YUtvGG8kj/iIFHx0DTRXOVzz7i5WdSsXKDSs3iDRwovYnnQme+LYRWzE+Jdjvi0wMMdU/vWwEWA9ZboQASu1HXHFayKGDQ6gY0assPedA15bFZbAum2ITDixH0fGPb2IoHhSQvP74F57+PMlvCgbZFyx1WMb9AIKaO7iJKbBoumgh85NYW6j1ZCTwQO9PwpTOBydOaIPZEfOiPuvWbjKzJpD+J8J6UORAcj8JWsihjp6eldEXcJ2aA6x1zWA7vhFs+Sm8BERHqInt6OESnoIf32IzDmwdP6isbd2zk1BUpT6vctAse1kQPz4iNhb3Nr+bQtyNMJrA5AshOYoOuZ4znvJiFns8oSSDfJPTAIE60Hrl2/ov0IDILSHNv/kcUGzL1NvX8cm8BBsZ9hGHPMDoDfZuQlKDFSgcBo05MwlP6e7DAhn6R7zKwOANJNcgJD8oZ0UnNgzDXDwdtQr+7L0qYMmpP62YpbgnngrR8ovU3gqADiDAWBmqgDcAd9BKctF8NSgcBOZ3pvlPFdssO2Xodtg9UBIB0kuQmcP5JWofuK+k9XMV2Co37bx6JoSrYlkRIiNAeeNcieA8vw8ROYdgGBQNtay6i9RVvzWN0GqUDg3NzcdNhZZpYXaa/PzMwM2i+QbvITmCR/WGdRettQ0fjdJqZMIOjdV6W3DZNesl28L0SuQs+/XDT7PrmEkYHntYUqzX1rFTpuAvfuTXtoaUuf2aG1rejQJ7O6DVKBwDRchp0FtArNtr4MNe9HuqlBYCm0E2vGKcKz6mmQ9Uv54AJJ4w9bRO2aZ0XJ9QPb7faRkm7yQlLz2qPC6/PyO3kfeOF1irz70H3gRBCY9gbD3lNmGdGh83Q94yxWt0EqEJjuCSO9+T5pf4W0T2F1AJBuChGYhBanIMXTjxdlfxovpeSaE+U2R7UPur3ICxlziCi8SBcN32xk6ip4q0pEycwBUm918bAJHBy0F9rpdLR4JNirdLszR7C6DVKBwBMnpu0Hwsz1JXBm5r5EYBb5kMGgNJF3BuTMNPkoYOFkzH0lgdqHxLSds2LhDNHs996thm82tMteaLdbOwGVsklVsuzcCX8rJTqj71sp9zqBaRMI8vCg6pyyE8C2PpLVbRBIYEfSEXjOnLTOIMy9+zSB80GUkhsGiopHrhaVj10vn8mlITQNrQvoXVdBiBRWQH751NEQXBTOgdBTSC1v3sDQ+Pxfivov1jBtTXhF1T9vQXxcNCzmvySxEhid6lg08CeqkqmxHW+4XD3jeZ62DTDXTEeHWKMaUxJyI7xfyDwmmsDKA+t/Vx5YbtYvR7mHsroN/AmM44dZFTUQf58mMNKV9a3ykDmMVVED+YqBwBhCl/zhLPksrj8qn7hZFMgnkqzJFFRGd5HkpQtD5WMzRdXSe0TVojtE+T0T5EVBfpZl/OGi8h+3tPHATfk/iOIrjuYHKCzsQuIgcC4q+j3V2LRzx7ExI8MdcutdNDCMw3RU+hazc1Ba8MoBz4/6ItEEplEAbPDuJNkRdqHcg1jdBrTtEOSpM8OiThayKmognX2YwI4rYcdr1iOafAyrogbyFcsQGp4SJK6hzR1eL1NJobkkD6QbrzynHE5bxfcTeGx600b1svvUVxwaWh8XpEWy2g9fldsnadieDy/rWfF3ueeaoN7IQd43+G2r2OfArh5o4JWq4aiCtBKXK7Mvq+MGyNMHdqvItiKw9jp9CYDVlkg0gcmrwsY7ZmdCeT8xMPJgdRvgPD0IIdNWBNCeYVXUQBmSiMBaQgmM/F8GO/WUvsqDcSGrogbyFdscuGDkwfKbRo0/bpVE8kXTnu2i7I9jfd6JZRHfFOgLJ/YUnjefCLlRpPHHLSDxmXJoXXTpEaJp9zdyJbzo8j4hvS9JrAQGOqNS/qEaTnUet1sfzrq4gY40iiueCaGHfdIl0QSGvf7oxPk+eVjep4/1R8PVGznkWz1kWMR7jVVRAzaSgsDIF5LWNptlxu9zrIoZqOOJKEMZpa/aUb8BpzsrbXRA3BgJTIIhb/m8KcLr+2QQgzZaVDwyHeHgHYlgRGR/j0z/IRXzpwoR4mV2JmrfWy6KLnaL/HM7yVfZlt05ytqun8RBYFSQNtusINXgRixP/wSAbmegIeebdvHbiEa9g9VBkWgCozxT25ZPuwunLR9o4OH2xxSWyf6+y9W9B6ujAmwkBYHpeWoQeKNPmZezKmagLGejDDspfS7PQ7QWweqogHzFQWBeNKoO8jZJb025qF2zRBTPOFUufEmyEZnpmEhHv+MPE/Wf+y9MWcNbVyPK7holF7loyK0uAOHn2nESeDQaOa+1krRtwXYqRQN0WAxHdZ+3ZGh7IvHuiSRwr169MpCH18iWsmcUg6SjWR2A9PT0rkjv2dY869uRn/6sjgqImxQExry/F9KTC40UB+V/vX//6F7A5w/U8a+cTsd689YdLhCr0tPdmayOCshXHAQmASHpFlLNikfgdq2fF6bPiHr+swjkGy2KfucUhXTL57zuau4Lj9pc8jOHDA96Cya9UE9eCCJcKIuHwKoB9dWq8dRwFw16M7IS9LG7SAA7t5r2yDYa8d1I3vKYSAJjPj8ZZWkw84ByrqCthqy2wv4IP4vCc+evMwxjFuuiAmwkBYFzcnp0R3qLKSwJ6ntDTo5+BKtjgrp1pz9v9inYr4Knt9z9Fg6IHyeBSUYdLAonZcg3SQb7jCjB66mUK9f1n72N4e9IGa/o0lzRXF7AIcKDHpSg7ZTRrHLHQ2ACOs8tqHB6UsescHhkx2msjhporNPREWCjpUOCCNpNrA6JRBEYdvoh7rdUHu4ANTh3MauDQr2uR/cl/WqMSCznzKGA+ElBYCIb0r2bwqp6ojWA4KOUSIHy3I4Rj9fsA3RPnaZVrI4YyFsCCEwCMtLL2SseukK+Hzocqp+7D/HghSccJhekIkXF/VMwB04LTD+ExEvg3mq/MOZ7LRWFhnd8GmzPcCg4nZkno/E2ofGkHdUx9PdzcjJ6cZCQQFxfApfjdxqrIgY68ECU51OzLFyupyKZhx15pJwHy73TqgxaM2xFvS5Ab8dIBgIT0D4TuY7MulqA0zEtOpkwjMxTkPbXpl3UI8qUeT6rIwbaQI4OlI14CExCn0/BsLjkun6i9p2lork0n2kXiLqP3xCFv3PJj4F7Xn2Yz4ZG4/dbRPG1p6hbVFbpB5F4CUzAcHMCOk6BehWLSWKD5oAX45dejhZqSN2JwgCTId/5khc282BzHIcLC8T3JTCGXtqNkbwLi8Lk5DhcCD8d8X9U6Zt50N9D/gJefxoMIMAoxPVQXLIBmx7En+tyZWSHuw1GoLk04l2XLATW9Z5HIE2uMxmnAPm5gsrBQQJAC34QXCgzLe+pE1AHf4Y9L9klgc2fUA+X0cIZ1PupUEGxn9rHrr1CeWIbcRKYZGw39YV+zHHL5owRtWuXwcNuD1hlpkWv0tnDJRmLpx8n7/+GAn08jR5YkIthUW4SSQSBCaigG6iz+VSYFDTuWgwtMTd0nEtzGTTCMSTkbekc9LNojouwLY3FHQFDYHkLIWK0JbBO3m8DGnE2OsNE6M6E9KM93Og8J5DQf8hIhLsTHXejmXf6dbnkogziO85g8xFBLWY55sGG3IzQWh5tK9KYC5sXoPyDkP4A/B+IOjkDMgTnJyHs9ZBHcbxF5UHVA8J3WALTRUnVcZuylqEOqBxjqIzkUVVdZ5yJskxFe7wAnQfh34IJS2+N+kG1+C4itvSnNbB9K9mmtqF6xOjoNNgdhDSGo19NQbjbkPenMZLJVxdRKQkgsCkgmdwWOaoLPHJ/Ub3oDlH3wUuiYev7ovHHr0RT4S75RcKCC9JluLLbhwU8pGCiueQnudJNnyEle5bphZBEEZiAyqRPlexo3fxvkoGEKlG+M3gHCSq/hM75NpB5DP1OhL2azUYMtPhYskkdkButxSbbpZe2FaBxf8ZxHv331ZNwXFqAeon2e7PpqEDzXqRBX4LwmGTwLSsJLlr10Df5nvOX1nJok9i0Jf6XBCYosmn/posexTPzwsdNyFM59PIlgeZ5Llsh4v6KzQQA5Toe8d4ww/vXIdmD7Xrks5lGbr46X1EjQyPUi91jFHhkIh1thaSNHfR+LXrskFaky+aMk98KJq9KX10ovuo4uRBWt/FN+fX++i/WCs+aJWo75VjYioG8JIkkMCErK3MwKpa+iPAzVbrZGUKJCic7DIilPx/skb1wQGc4AQ3+JhprFzWumb55QQkmZjjVyeRoYCbmrb9gszGB5szogDORl/Ww5zXTsEqfxNSrfFDH1H9Gh/0Yv4vCXUgMeGiKp754ILe1XseqqMAEfjgnxy1tUR569dIGsDokNC27D+puCZFVlcOqjK1tjXR2IyzmqK6Qu/doaoN6nIdyyTlxMNumKD3Vs1xExMVD/wH5WocL5pOJJ7Cv0PCayUq3gsjzynOsl+dpz/OkDLnLi959pc51bhMuWkk0gRVOOgAediwa6EFU/FuoxG34LUZFyhVaErpy0jnWUZj56IjjYllt9AU9UIEGHwH7N8HmY5CVOP4I8hXSh2fXQW4tH/8L8LsbsgVh6IsFC0GUy8mbsKmEAGXKRX4wNHY8hTTehmyCbEP6tMq9HR2L9ntvxLnVkOU4XgDdzQ6HMU49vBH+lhy9NQPx/grC/xVx70V6Md1/FiKtE91vR+dnW8bN0dQHwndB2pNx0XoC9boGedmKfP2Acu1COWnk9Qn+vwry0prASJpucNSwQD4GQu5E/Odgex3kS7Me8bsd/zdDPoK8BXkW+aD8X4t6P7elDO1K4EhFkvxgNVyOcr5rJe1D4FbgCutQ8yDHOFT+FHiHK0jomM6RjsJw8IQDjXd4Zqb7KOrU6JxnUYMizVGaljGajtHIp9L4j4O3K5AH+urer6kzIk3MfR2nZ2QYpyIPx1Ani2SlO1nAnrMfLgRno1xDUMbBkGNpcYmDxAjapdcrB13mJOo7VI902xK/J8P2UXQBD7pw2SEInGBpbwLbsNFhYBPYho0khk1gGzaSGDaBbdhIYtgEtmEjiWET2IaNZEVa2v8DDweyAbDh1A4AAAAASUVORK5CYII=;" parent="1" vertex="1">
                    <mxGeometry x="407.84999999999997" y="100" width="311.12" height="70" as="geometry"/>
                </mxCell>
                <mxCell id="130" value="" style="shape=cube;whiteSpace=wrap;html=1;boundedLbl=1;backgroundOutline=1;darkOpacity=0.05;darkOpacity2=0.1;fillColor=#B3B3B3;strokeColor=#000000;movable=1;resizable=1;rotatable=1;deletable=1;editable=1;connectable=1;" parent="1" vertex="1">
                    <mxGeometry x="559.52" y="280" width="80" height="80" as="geometry"/>
                </mxCell>
                <mxCell id="145" style="edgeStyle=none;html=1;exitX=0.5;exitY=0;exitDx=0;exitDy=0;exitPerimeter=0;fontFamily=Helvetica;fontSize=24;fontColor=#000000;strokeColor=#000000;strokeWidth=2;" parent="1" source="131" target="127" edge="1">
                    <mxGeometry relative="1" as="geometry"/>
                </mxCell>
                <mxCell id="152" value="- Mount (Bind-mount)" style="edgeLabel;html=1;align=left;verticalAlign=middle;resizable=0;points=[];fontSize=24;fontFamily=Helvetica;fontColor=#000000;labelBackgroundColor=none;" parent="145" vertex="1" connectable="0">
                    <mxGeometry x="0.32" y="-2" relative="1" as="geometry">
                        <mxPoint x="8" y="29" as="offset"/>
                    </mxGeometry>
                </mxCell>
                <mxCell id="131" value="Source Code" style="shape=cylinder3;whiteSpace=wrap;html=1;boundedLbl=1;backgroundOutline=1;size=15;fillColor=#B3B3B3;strokeColor=#000000;fontSize=24;fontColor=#000000;verticalAlign=middle;" parent="1" vertex="1">
                    <mxGeometry x="509.76" y="560" width="200" height="80" as="geometry"/>
                </mxCell>
                <mxCell id="137" value="" style="shape=cube;whiteSpace=wrap;html=1;boundedLbl=1;backgroundOutline=1;darkOpacity=0.05;darkOpacity2=0.1;fillColor=#B3B3B3;strokeColor=#000000;movable=1;resizable=1;rotatable=1;deletable=1;editable=1;connectable=1;" parent="1" vertex="1">
                    <mxGeometry x="649.52" y="280" width="80" height="80" as="geometry"/>
                </mxCell>
                <mxCell id="138" value="" style="shape=cube;whiteSpace=wrap;html=1;boundedLbl=1;backgroundOutline=1;darkOpacity=0.05;darkOpacity2=0.1;fillColor=#B3B3B3;strokeColor=#000000;movable=1;resizable=1;rotatable=1;deletable=1;editable=1;connectable=1;" parent="1" vertex="1">
                    <mxGeometry x="559.52" y="370" width="80" height="80" as="geometry"/>
                </mxCell>
                <mxCell id="139" value="" style="shape=cube;whiteSpace=wrap;html=1;boundedLbl=1;backgroundOutline=1;darkOpacity=0.05;darkOpacity2=0.1;fillColor=#B3B3B3;strokeColor=#000000;movable=1;resizable=1;rotatable=1;deletable=1;editable=1;connectable=1;" parent="1" vertex="1">
                    <mxGeometry x="649.52" y="370" width="80" height="80" as="geometry"/>
                </mxCell>
                <mxCell id="127" value="" style="shape=image;verticalLabelPosition=bottom;labelBackgroundColor=default;verticalAlign=top;aspect=fixed;imageAspect=0;image=data:image/png,iVBORw0KGgoAAAANSUhEUgAAAEEAAABBCAYAAACO98lFAAAAAXNSR0IArs4c6QAAAARnQU1BAACxjwv8YQUAAAAJcEhZcwAAFxEAABcRAcom8z8AAA6uSURBVHhe7VsHeFTFFl5Aup8i5SHSpbenCI/2EKRDCAGkg1SlgyAPMfQqRQSRagBFmnQFBfIoPilGegsh2ZKyKaRnk5BkN7vZ7HH+k3uXpQT2Lpug3+P/vmG5M7fM/HPOf87MvVHRC1C+kmAJj6fUg35k+MaXEpcfJIOPLxkvqMl4SZTLWjJro8h0PZisCanSFfmDPCchKy6FUvedo7tDV1Nw3XEUWKAHBag60R1VFwoq2pu0FYdTcJ2xFFxrDLfjOLTxFIoa+AUlrf2FMtVRZDNmUnaakWxZVumu7kWekZB5W09xs3aIAYqBF/ISg+4qigcFvdSTAlEEGYGq7kxGgKqzVEBOV/7FcaDKk7QVhlF4xzkU1nI6E2O8qBGEmKSnuAduJyHj7G2KmfwN6SqPFAPKGQgGHlSkt0RGF/5VvzqANGUGk7b8UNJVGUm66h+SttII0vzjA1K/0t/BYjqL0k3cx0P8epCm/Aekb/MZJW894TbLcBsJ2feMlLjykBjUkJyBYvBFelFgQXnGu/HgIjwXkmHTcSYr83oImYNjyJp0j6zJ6WSNSyazOpLST90kg3CF6NHrKKThBL4XW1FhcT/+f1e+b2SvJWQOipB64DrcQkJmUCRF9F7CHcWAMevcYTGbmtcGUujbH9PdD1bRvcMXyWbJkq5yDpaIBDJs9uV7sEUU9GItgXXBSnRCS9KOX5XOdg3PTIJZE0WhLf6T48Mw+8LonAebsr7lp2T0CyRbpkU623VkxRgo5mOfHOuClYEIUUCMptwQQfAF6UzleCYSsoT5RnRfKDoilB4+D5MV/q5/9zOh7D+TRR8nnek+ILyqXxWa8QAR3YWejCTTJa10ljIoJsEsYj1mBTBsOCY60FUyza4sbqhDOMtLpAhRVJfswwLLRAjrCFB1EILpTVZDmnSW81BMQlZkAmWLB6XuPsOqLoteeKc5nOjkC2w2ip+3SzxXaJBwP/VrgyhmzHoRRoX7XVPeB5fcIf1//qQpPYhnP7CIF0UPX223DldgCYuljPN3OCoY/wikrOgkqSV3ZN1NIv173jmWWKIvJX5xSEScAJF13pXOcB6KSIBSI6UN7zKPZwFiiEQmO9UF87dmU+qu3yhSRBV9688ossciihm3geJmbKN4kWQZ1hyhzJuhZDPlLqqGdb+ICCSsQUQh9cv9BIFBlBmoPGQqI0HoQbLPf0lTdrBkil6UsGiP1Oo8rPEpIvtbSaH/nEwJC/dQpn8Y5xk2cxYX5Ax4lvH3QB4U6h6HjN/8paSsm8gsh1La0ctskUqjkWJ3QILC8VqQEN5pLuuDEsCMI/suo8g+S52KHjaLNdfcAkSFt5/FFqku2ZfSfr7E9bmRlhsUkWASohNcewznAFqRvqaduC61OA8kTRHd5lN2+rPn/1nxqSJEL2ASAkVylrjsgEhdbVKr81BGwhUdL4gQjoLrjadso1lqcQ7pp26QruZosXTWSDVOQkQDiKUt88HncZ7isUBYZhdRPClqwArFGSmgiIRMfz2F1J8gSOjIMVkpovovZ/O1mZSRZxOza7qiJWtKhlSTA7OIKvr3ZjIJmjKDKPWHM1KLMii0BC2v+xGWooZ9JdU6D3QYxabQgnKDOSSGIwssM7LfMrKIY1egiASYsa7GaBbFeO/tUq3zQGhVv9KPrLHJUs3TYU1K49j/uFCJ3EJbeQRPSrKPL2VFJbLrKIUyEqAJNcdw3s4ipBCx3tsoqHgfYbZnpZqnw/SHmkyXtY/sHWTeCafwDrPIX/WuyDU+5/zFmpjK+YdSKLcEIWxMwuJ9Uq3zMF7V8cZJaNOplC1ygUcgBmC6FUYZIiPFHgPA4e4xih8z6RuOUmHNp5EJSVWGyWU3U0SCOSiSQhpM5JCEfAEx3FlYE++xwics2UdBxd7nrbJHtsmys3lbDulvbvkHxDF+/i4KLNmTQptM5UQL4JArrncFikhAVoe9vgBVe9JVG8WboM4C/nrvkB+ln7xOSV8dJp2wCF50ObngwcIt9cDvvEhCNIgauJxMN4QFuGGLTREJAGYQOzrYyECaqgRZIsPLOBcgrrvEmhLWaroQ2g8p+qN1vDsEF7CZLWQTbgE3yBJ+bryopoQFP5CuKlasnhydkrecUBxmnwTFJBg2HucUNfAlT7HY+U6qVQboQZrvVUoQROhF3oDsk7fda48l/b8/pfDO8yisxXTer1SXGsD7FMgyEQHgVu6GYhJglpgNiJKu+keUsvuMSxsZgCVSuMhBP0pccZAS5u9mvUhYspfi5+yixM/3U8q20+w+5uBo6Yq8gWISgNhPtvI2Gpawdwp2J31bbzKLkOUqYPoQSYterBwva3j1aMnjgTvCJRLMumg2Ufgo9vdgspjRvytcIgEwrDvKlsD7fIW9hAnvpGw3ilV+wmUSYL5YEOXsLXQXKv+RSFpCpNa/F1wmAbCExlJos2lCJPHGqTvFTvZxKW193ngmEgC8Ug9uOJ6zSHWJPmTYcFRq+fvgmUkAsMEZ0gjpdAcKKvE+JXyufF3xPOEWEgBsiCLxuS1SariGYeMxl5a1zwNuIwHAcha6EPiSyCGw3dV3Ke8I/9XhVhJk4JMcvEW+rWpHQS/3pqQ1R1xe4eUH8oQEAO8W8FZIV32UCKPCKsTCK+3YFZfeEOU18owEGRax1jCsP0qh//qEX93pqo7iN0eurjfyAnlOggy8FcKXavFioRTVbznFTtvKL3WxgYLXbdhvcGW73B3INxIehiVCLJZEaIVwmq7q+G2S0jdH7sJzI+GvhBckCLwgQeAFCQIvSBB4QYLAX5IE7FPkJ55KQmZmJsXHx9PFixdp165dFBvrXAdtYgWZnp7O1548eZKvTUxMlFofD7x3iJ//A7+LiJu9k7JE6p0feCoJp06domrVqlHJkiWpadOmFBzs3Bsjk8lES5cupXLlylHRokWpY8eOdPfuk9cNKXvO8is6f1Ubsd7wIMMmX6klb/FUEtRqNTVo0IBUKhUPJDra+a3w48eP83Uo/fv3J4PhyZ/54a0SPv4OfXsSfyye/dBHGXmFp5KQnJxM7du354H07t2bEhISpJanAy5UqlQpvnbIkCF0756Tb4/y5m87csUDJMD/jx49SjNmzKBBgwZxx0ePHk01a9a0z2ZS0v0PLUNCQmj16tU0ePBg6tWrF40dO5Z27NhBqak5f75z7do1qlixIl87btw41ghfX1+aMmUKjRw5kt3lzp07fC4Avfn9Dz/avX8vfbFyJV29mvP1elpaGl24cIG+/vprmjRpEj8PZerUqbRt2zaKi7v/FRyece7cOdq/fz9Nnz6drly5Qnq9nubNm8fjGTVqFH355ZcUHn7/ZZGdhKCgIPLw8KCCBQtyp8uXL0+1atWi0qVL8zHKsGHDuEPA9u3bqXLlylSgQAF2F+hFoUKF+DxYDsjy9/enqlWrct3EiRO5yPeSS5UqVejgwYN8z7CwMKpduzbf8/XXX6fz589zPSZFPh/6UqZMGSpcuLC9rkmTJvwsICUlhQmS+9KvXz9q1aoVa5N8PkqnTp2YHIBJiImJoW7dunEjBHDdunUsYkajkZVdtoThw4dzHWalRIkSXOft7U1Wa479HjlyxG7+s2bNooCAABZVHL/xxhtUv359WrFiBe3bt48tB/Uob731FhMAtGzZkutABq4HMKsDBgygzZs3s3VhFm/dusXWJd9j7ty59n7AwuT6ChUq0IYNG9jifv31V3rnnXe4HkTv2ZPzISqTgIfIF2FQjsADmzVrxm0jRoxgcwPTOMagHha7du3acRvYv3TpElWvXt1+7wMH7n/ig/vCeuQ2uCEAa8RxnTp17CRk57I1h9mX3W38+PFkseR817R+/Xr7fadNm8Z1MuAWctu3337LdSrE8wULFtgboOiO0Gg0bG5ogz/BQurVq8fHcIOzZ8+y2cIP/fz8ePBoa9SoER07dozefPNNPm7cuLHd/GTMnj2b21C2bt3KdTBfHDuSIOP69eu0ZcsWmj9/Ps2ZM4f7I7srtMJsznkNiHvJ94X1yMBYYYly23ff5XxaoIIYTpgwwd5w+vRpbpCBjmDG0YaH3rx5k2rUqMHH8Du4DwrcA7+ypoA4iKBMgpeXFydOjoDboQ1l06ZNXDdw4EA+diQBz+zRowfrAZ4D8uE2DRs2tLulIwkQZ/m+8kABkLBs2bJH2lS4cPLkyfYGdNwRt2/fprp163IbSIBvySTgF5kghA2mjvLTTz/RoUOH2DIQImVhhAsh3Dpi7dq19ufCJQFEIByDBK1Wy3rVpk0broNOwG1kF4S7oQ5tjiRAtOX77ty5k+uAXEnAP0uWLLE3bNy4kRtkYDYQJdAGTcBsQshwjBlxDJkP48aNG6z+OHfo0KGs3DLg5zNnzuQ2mDQGBMBiUAcSoqKi6PDhw1SsWDGug+U44syZM1S2bFlucyQBLoA6lN27d3Md8EQSfvzxR3tIad26NbMvA+4hdwKzhNlEnMcx6hctWiSd+Sjgw7IlgAQ5vALQFllroPwQXKBLly5cBxKQnWImcYwC1XeETCIKrPlxwog8QsYTScCgO3fubG/09PRkE0cHWrRoweEE9TBLJDRIkmTVL168OEcUJCVQ/IiICLp8+TK7A0IpQhTOc9QErD/gWqiHpUBQAVhH27ZtuR6uptPp+L7yPSpVqkQ+Pj4ctjFoWAF0CG0Il7IlOLoZhFQG7r9w4UJ72wMkAJi15s2b20+QCzolx1bkAIjTAMxXTqdRQBTCFRIoJDI9e/bkyCEnNRAwRI4OHTrwYFAHUmUCAOQgck6CASJSoePIOYoUKWJ/FgomYfHixXbXhAXJaTkih3zemjVruA5AEHBM2JA5AnYSAPg3lBXpKOIrRA4zv3fvXlq+fDmbIxZUMtBp+CVMDCkzxA8JFSwDBEDAkJCAfbQj/MH00X7ixAnKyHhwgYSlNjQJ5owi6wTMHITgOvg+0mdYHNzr+++/574hIUK6joQJoRkDRL/QD7gBABKgMXjGqlWr2NXR9gAJ/58g+hODkbJLnZY9ogAAAABJRU5ErkJggg==;movable=1;resizable=1;rotatable=1;deletable=1;editable=1;connectable=1;" parent="1" vertex="1">
                    <mxGeometry x="580" y="390.48" width="59.52" height="59.52" as="geometry"/>
                </mxCell>
            </root>
        </mxGraphModel>
    </diagram>
</mxfile>
